<?xml version="1.0" encoding="UTF-8"?>
<svg id="Camada_2" data-name="Camada 2" xmlns="http://www.w3.org/2000/svg" viewBox="0 0 176.49 176.49">
  <defs>
    <style>
      .cls-1 {
        fill: #fff;
      }

      .cls-1, .cls-2, .cls-3, .cls-4, .cls-5 {
        fill-rule: evenodd;
      }

      .cls-2 {
        fill: #0a87b3;
      }

      .cls-3 {
        fill: #65cdf6;
      }

      .cls-4 {
        fill: #c9ebf9;
      }

      .cls-5 {
        fill: #1fafdf;
      }
    </style>
  </defs>
  <g id="Layer_1" data-name="Layer 1">
    <g>
      <path class="cls-5" d="M88.19,0c48.82,0,88.3,39.48,88.3,88.19s-39.48,88.3-88.3,88.3S0,137.01,0,88.19,39.48,0,88.19,0h0Z"/>
      <path class="cls-2" d="M88.19,0c48.82,0,88.3,39.48,88.3,88.19s-39.48,88.3-88.3,88.3V0Z"/>
      <path class="cls-4" d="M124.67,32.47c-16.57,2.11-33.81,9.23-47.93,19.35-49.04,35.14-32.7,92.3,17.02,86.41,21.02-2.45,32.7-19.02,32.25-35.48-.22-8.67-3.67-15.24-11.01-24.13-13.23-15.79-5-33.47,11.45-42.59,4.78-2.67,3.23-4.23-1.78-3.56h0Z"/>
      <path class="cls-3" d="M124.67,32.47c-12.23,1.56-24.91,5.89-36.48,12.12v94.08c1.89,0,3.67-.22,5.56-.44,21.02-2.45,32.7-19.02,32.25-35.48-.22-8.67-3.67-15.24-11.01-24.13-13.23-15.79-5-33.47,11.45-42.59,4.78-2.67,3.23-4.23-1.78-3.56h0Z"/>
      <path class="cls-1" d="M104.65,77.85c3.23,0,5.78,3.23,5.78,7.23s-2.56,7.34-5.78,7.34-5.78-3.23-5.78-7.34,2.56-7.23,5.78-7.23h0Z"/>
      <path class="cls-1" d="M112.32,92.97c1.22,0,2.22,1.22,2.22,2.78,0,1.45-1,2.67-2.22,2.67s-2.11-1.22-2.11-2.67c0-1.56,.89-2.78,2.11-2.78h0Z"/>
    </g>
  </g>
</svg>