<?xml version="1.0" encoding="UTF-8"?>
<svg id="Camada_2" data-name="Camada 2" xmlns="http://www.w3.org/2000/svg" viewBox="0 0 201.82 291.49">
  <g id="Layer_1" data-name="Layer 1">
    <rect width="201.82" height="291.49" rx="16.42" ry="16.42" style="fill: #000;"/>
    <rect x="12.5" y="23.43" width="176.82" height="226.1" style="fill: #fff;"/>
    <rect x="72.97" y="263.3" width="55.88" height="19.14" rx="8.75" ry="8.75" style="fill: #fff;"/>
    <path d="M111.54,79.77c25.45,0,46.07,20.62,46.07,46.07,0,25.45-20.62,46.07-46.07,46.07-10.17,0-19.56-3.28-27.17-8.86l-28.04,28.06c-2.77,2.77-7.26,2.77-10.03,0-2.77-2.77-2.77-7.26,0-10.03l28.04-28.06c-5.56-7.62-8.86-17.01-8.86-27.17,0-25.45,20.62-46.07,46.07-46.07Zm31.89,46.07c0-17.61-14.28-31.89-31.89-31.89s-31.89,14.28-31.89,31.89,14.28,31.89,31.89,31.89c17.61,0,31.89-14.28,31.89-31.89Z" style="fill: #000;"/>
  </g>
</svg>