<?xml version="1.0" encoding="UTF-8"?>
<svg xmlns="http://www.w3.org/2000/svg" viewBox="0 0 181.71 182.09">
  <g style="isolation: isolate;">
    <g id="Camada_2" data-name="Camada 2">
      <g id="Layer_1" data-name="Layer 1">
        <g>
          <path d="M90.86,169.93c43.58,0,78.91-35.33,78.91-78.91H11.95c0,43.58,35.33,78.91,78.91,78.91Z" style="fill: #58595b;"/>
          <g>
            <path d="M90.86,12.16C47.28,12.16,11.95,47.49,11.95,91.07H169.76c0-43.58-35.33-78.91-78.91-78.91Z" style="fill: #333;"/>
            <path d="M62.6,84.83c2.86-12.98,14.42-22.69,28.25-22.69s25.4,9.71,28.25,22.69h62.6C178.5,37.44,139.05,0,90.86,0S3.21,37.44,0,84.83H62.6Z" style="fill: #f15845;"/>
          </g>
          <path d="M119.11,97.27c-2.86,12.98-14.42,22.69-28.25,22.69s-25.4-9.71-28.25-22.69H0c3.21,47.38,42.66,84.83,90.86,84.83s87.65-37.44,90.86-84.83h-62.6Z" style="fill: #e6e7e8;"/>
          <circle cx="90.86" cy="91.02" r="22.91" style="fill: #fff;"/>
          <circle cx="90.86" cy="91.02" r="15.37" style="fill: #bcbec0;"/>
          <circle cx="90.86" cy="91.02" r="12.99" style="fill: #fff;"/>
          <path d="M46.37,170.81c13.03,7.19,28,11.28,43.93,11.28,48.2,0,87.64-37.44,90.86-84.83h-13.11s-22.18,67.07-121.68,73.55Z" style="fill: #231f20; mix-blend-mode: multiply; opacity: .07;"/>
          <path d="M105.56,31c0,4.22-1.37,8.11-3.68,11.27l11.63,11.64c1.15,1.15,1.15,3.01,0,4.16-1.15,1.15-3.01,1.15-4.16,0l-11.63-11.64c-3.16,2.32-7.06,3.68-11.27,3.68-10.56,0-19.11-8.55-19.11-19.11s8.55-19.11,19.11-19.11,19.11,8.55,19.11,19.11Zm-19.11,13.23c7.31,0,13.23-5.92,13.23-13.23s-5.92-13.23-13.23-13.23-13.23,5.92-13.23,13.23,5.92,13.23,13.23,13.23Z" style="fill: #e6e7e8; stroke: #231f20; stroke-miterlimit: 10;"/>
        </g>
      </g>
    </g>
  </g>
</svg>