<?xml version="1.0" encoding="UTF-8"?>
<svg id="Camada_2" data-name="Camada 2" xmlns="http://www.w3.org/2000/svg" viewBox="0 0 201.82 291.49">
  <g id="Layer_1" data-name="Layer 1">
    <rect width="201.82" height="291.49" rx="16.42" ry="16.42" style="fill: #231f20;"/>
    <rect x="12.5" y="23.43" width="176.82" height="226.1" style="fill: #fff;"/>
    <rect x="72.97" y="263.3" width="55.88" height="19.14" rx="8.75" ry="8.75" style="fill: #fff;"/>
    <path d="M34.76,89.22c0-5.23,4.22-9.45,9.45-9.45h113.41c5.23,0,9.45,4.22,9.45,9.45s-4.22,9.45-9.45,9.45H44.21c-5.23,0-9.45-4.22-9.45-9.45Zm0,47.25c0-5.23,4.22-9.45,9.45-9.45h113.41c5.23,0,9.45,4.22,9.45,9.45s-4.22,9.45-9.45,9.45H44.21c-5.23,0-9.45-4.22-9.45-9.45Zm132.31,47.25c0,5.23-4.22,9.45-9.45,9.45H44.21c-5.23,0-9.45-4.22-9.45-9.45s4.22-9.45,9.45-9.45h113.41c5.23,0,9.45,4.22,9.45,9.45Z" style="fill: #231f20;"/>
  </g>
</svg>