<?xml version="1.0" encoding="UTF-8"?>
<svg id="Camada_2" data-name="Camada 2" xmlns="http://www.w3.org/2000/svg" viewBox="0 0 176.49 176.38">
  <defs>
    <style>
      .cls-1 {
        fill: #56b947;
      }

      .cls-1, .cls-2, .cls-3, .cls-4 {
        fill-rule: evenodd;
      }

      .cls-2 {
        fill: #e8e85f;
      }

      .cls-3 {
        fill: #459f46;
      }

      .cls-4 {
        fill: #bfd330;
      }
    </style>
  </defs>
  <g id="Layer_1" data-name="Layer 1">
    <g>
      <path class="cls-1" d="M88.19,0c48.82,0,88.3,39.48,88.3,88.19s-39.48,88.19-88.3,88.19S0,136.9,0,88.19,39.48,0,88.19,0h0Z"/>
      <path class="cls-3" d="M88.19,0c48.82,0,88.3,39.48,88.3,88.19s-39.48,88.19-88.3,88.19V0Z"/>
      <path class="cls-2" d="M67.95,29.47c45.15-26.25,100.76,12.46,87.97,68.84-13.68,59.61-72.06,67.06-117.99,46.93-10.45-4.56-10.01-13.35-1.45-20.02,45.04-34.7,49.38-55.16,52.27-55.49,4-.44-1.22,32.14,7.9,35.03,9.9,3,27.14-15.46,26.69-38.92-.33-23.47-24.36-37.26-55.27-32.03-7.67,1.22-7.12-.33-.11-4.34h0Zm16.9,83.3c-5.78,5.12-5.23,4.89-16.35,15.12-6.23,5.67-8.12,6.9-6.9,7.23,2.78,.89,26.36,.22,21.8-16.79-.22-.78,1.67-3.78,2.34-5.34,.56-1.56-.22-.89-.89-.22h0Z"/>
      <path class="cls-4" d="M88.19,22.02c39.81-7.01,78.63,28.14,67.73,76.29-8.9,38.7-36.7,55.38-67.73,56.83V69.95c.22-.11,.44-.22,.56-.22,4-.44-1.22,32.14,7.9,35.03,9.9,3,27.14-15.46,26.69-38.92-.33-18.02-14.46-30.36-35.14-32.7v-11.12Z"/>
    </g>
  </g>
</svg>