<?xml version="1.0" encoding="UTF-8"?>
<svg id="Camada_2" data-name="Camada 2" xmlns="http://www.w3.org/2000/svg" viewBox="0 0 176.49 176.38">
  <defs>
    <style>
      .cls-1 {
        fill: #fff;
      }

      .cls-1, .cls-2, .cls-3, .cls-4 {
        fill-rule: evenodd;
      }

      .cls-2 {
        fill: #f3971f;
      }

      .cls-3 {
        fill: #f3b81a;
      }

      .cls-4 {
        fill: #ffcb05;
      }
    </style>
  </defs>
  <g id="Layer_1" data-name="Layer 1">
    <g>
      <path class="cls-3" d="M88.19,0c48.82,0,88.3,39.48,88.3,88.19s-39.48,88.19-88.3,88.19S0,136.9,0,88.19,39.48,0,88.19,0h0Z"/>
      <path class="cls-2" d="M88.19,0c48.82,0,88.3,39.48,88.3,88.19s-39.48,88.19-88.3,88.19V0Z"/>
      <path class="cls-1" d="M36.81,114.21L95.42,23.58c3.89-6.12,4.78-6.9,2.78,.67l-14.23,53.27,54.49-18.68c2.34-.89,2.34,1.56,1.22,3.34l-58.61,90.64c-3.89,6.12-4.78,6.9-2.78-.67l14.23-53.27-54.49,18.68c-2.34,.89-2.34-1.56-1.22-3.34h0Z"/>
      <path class="cls-4" d="M88.19,34.59l7.23-11.01c3.89-6.12,4.78-6.9,2.78,.67l-10.01,37.26v-26.91Zm0,41.48l50.27-17.24c2.34-.89,2.34,1.56,1.22,3.34l-51.49,79.63v-26.91l4.34-16.01-4.34,1.45v-24.24Z"/>
    </g>
  </g>
</svg>