<?xml version="1.0" encoding="UTF-8"?>
<svg id="Camada_2" data-name="Camada 2" xmlns="http://www.w3.org/2000/svg" viewBox="0 0 176.49 176.49">
  <defs>
    <style>
      .cls-1 {
        fill: #facd85;
      }

      .cls-1, .cls-2, .cls-3, .cls-4 {
        fill-rule: evenodd;
      }

      .cls-2 {
        fill: #0a87b3;
      }

      .cls-3 {
        fill: #f6e294;
      }

      .cls-4 {
        fill: #1fafdf;
      }
    </style>
  </defs>
  <g id="Layer_1" data-name="Layer 1">
    <g>
      <path class="cls-3" d="M88.19,0c48.71,0,88.3,39.48,88.3,88.3s-39.59,88.19-88.3,88.19S0,137.01,0,88.3,39.48,0,88.19,0h0Z"/>
      <path class="cls-1" d="M88.19,0c48.71,0,88.3,39.48,88.3,88.3s-39.59,88.19-88.3,88.19V0Z"/>
      <path class="cls-4" d="M37.81,41.82c-1.78,4.78,24.8,36.92,24.58,49.82-.11,6.23-30.36,16.57-22.91,18.68,4.89,1.45,22.58-1.33,21.46,3.34-1.22,4.67-13.23,22.8-9.56,21.69,7.34-2.34,23.91-13.23,33.14-26.91,3.11-4.67,4.23-4.78,7.45,0,9.12,13.79,25.69,24.58,33.14,26.91,3.56,1.11-8.45-17.02-9.56-21.69-1.22-4.67,16.57-1.89,21.46-3.34,7.45-2.11-22.8-12.46-22.91-18.68-.33-12.9,26.36-45.04,24.47-49.82-1.67-4.45-30.25,14.68-45.15,30.14-5,5.12-5.89,4.67-10.34,0-14.9-15.46-43.59-34.59-45.26-30.14h0Z"/>
      <path class="cls-2" d="M88.19,104.87c1.11,0,2.22,1.22,3.78,3.56,9.12,13.79,25.69,24.58,33.14,26.91,3.56,1.11-8.45-17.02-9.56-21.69-1.22-4.67,16.57-1.89,21.46-3.34,7.45-2.11-22.8-12.46-22.91-18.68-.33-12.9,26.36-45.04,24.47-49.82-1.67-4.45-30.25,14.68-45.15,30.14-2.34,2.45-3.78,3.56-5.23,3.67v29.25Z"/>
    </g>
  </g>
</svg>