<?xml version="1.0" encoding="UTF-8"?>
<svg id="Camada_2" data-name="Camada 2" xmlns="http://www.w3.org/2000/svg" viewBox="0 0 176.49 176.38">
  <defs>
    <style>
      .cls-1 {
        fill: #745c44;
      }

      .cls-1, .cls-2, .cls-3, .cls-4 {
        fill-rule: evenodd;
      }

      .cls-2 {
        fill: #fff;
      }

      .cls-3 {
        fill: #e5e6e7;
      }

      .cls-4 {
        fill: #8b7e71;
      }
    </style>
  </defs>
  <g id="Layer_1" data-name="Layer 1">
    <g>
      <path class="cls-4" d="M88.3,0c48.71,0,88.19,39.48,88.19,88.19s-39.48,88.19-88.19,88.19S0,136.9,0,88.19,39.59,0,88.3,0h0Z"/>
      <path class="cls-1" d="M88.3,0c48.71,0,88.19,39.48,88.19,88.19s-39.48,88.19-88.19,88.19V0Z"/>
      <path class="cls-2" d="M9.12,91.53c-1.22,15.35,8.12-15.24,29.8-23.24,40.15-14.79,47.04,26.02,60.94,41.26,34.7,37.7,73.84-8.79,55.83-50.38C126.56-8.79,15.57,13.23,9.12,91.53h0Zm145.57,21.46c-.56,3,.22,4,1.78,4.34,2.89,.56,4.45,.89,6.23,3.23,1.89,2.45,4.23,1,4.11-4-.22-7.78-10.23-12.12-12.12-3.56h0Zm-63.95,17.9c-.11,3.78,3.78,2.67,6.01,2.45,1,0,1.89,0,2.56,.78,2,2.34,4-.67,7.34,.78,7.67,3.23,4.78-13.46-5.23-13.9-4.56-.22-10.45,2.56-10.68,9.9h0Zm36.81-21.24c-5.67,6.67-16.79,2.67-22.35-2.22-5.56-4.78-6.34-13.01-1.67-18.46,5.78-6.78,29.8,14.12,24.02,20.69h0Zm13.68-1.22c4.11-.44,9.23-6.01,10.45-11.23,1.45-5.89-1.67-11.57-6.9-12.68-8.34-1.56-11.68,24.69-3.56,23.91h0Z"/>
      <path class="cls-3" d="M88.3,91.41c3.89,6.9,7.45,13.57,11.57,18.13,34.7,37.7,73.84-8.79,55.83-50.38-12.46-29.03-39.7-41.59-67.39-40.48V91.41Zm66.39,21.57c-.56,3,.22,4,1.78,4.34,2.89,.56,4.45,.89,6.23,3.23,1.89,2.45,4.23,1,4.11-4-.22-7.78-10.23-12.12-12.12-3.56h0Zm-63.95,17.9c-.11,3.78,3.78,2.67,6.01,2.45,1,0,1.89,0,2.56,.78,2,2.34,4-.67,7.34,.78,7.67,3.23,4.78-13.46-5.23-13.9-4.56-.22-10.45,2.56-10.68,9.9h0Zm36.81-21.24c-5.67,6.67-16.79,2.67-22.35-2.22-5.56-4.78-6.34-13.01-1.67-18.46,5.78-6.78,29.8,14.12,24.02,20.69h0Zm13.68-1.22c4.11-.44,9.23-6.01,10.45-11.23,1.45-5.89-1.67-11.57-6.9-12.68-8.34-1.56-11.68,24.69-3.56,23.91h0Z"/>
    </g>
  </g>
</svg>