<?xml version="1.0" encoding="UTF-8"?>
<svg id="Camada_2" data-name="Camada 2" xmlns="http://www.w3.org/2000/svg" viewBox="0 0 176.49 176.49">
  <defs>
    <style>
      .cls-1 {
        fill: #b92025;
      }

      .cls-1, .cls-2, .cls-3, .cls-4, .cls-5 {
        fill-rule: evenodd;
      }

      .cls-2 {
        fill: #f3b81a;
      }

      .cls-3 {
        fill: #f37021;
      }

      .cls-4 {
        fill: #8f191c;
      }

      .cls-5 {
        fill: #f48b20;
      }
    </style>
  </defs>
  <g id="Layer_1" data-name="Layer 1">
    <g>
      <path class="cls-5" d="M88.19,0c48.82,0,88.3,39.48,88.3,88.19s-39.48,88.3-88.3,88.3S0,137.01,0,88.19,39.48,0,88.19,0h0Z"/>
      <path class="cls-3" d="M88.19,0c48.82,0,88.3,39.48,88.3,88.19s-39.48,88.3-88.3,88.3V0Z"/>
      <path class="cls-1" d="M30.58,108.65c2.56,.89,3.34,6.34,8.23,5.89,2.45-.22,2-.78,1-2.89-2.78-6.12-10.01-22.58-3.78-33.92,7.78-14.01,14.35-19.91,15.01-23.35,.56-3.34,4.67,4.67,0,14.01-3,5.89-1.11,10.45,.67,13.01,3,4.11,1.89,1.67,2.22-1.56,.67-6.12,3.89-18.35,18.57-26.69,20.24-11.45,3.45-29.8,6.78-31.36,3.45-1.56,23.69,6.78,30.58,31.69,6.78,24.91-.67,32.03,3.34,33.59,4.11,1.56,25.58-13.01,28.36-18.91,.67-1.33,1.56-.89,2.34,.89,2.56,5.78,3.89,24.91-10.23,37.37-1.45,1.22-2.78,2.89,.11,2.67,4.67-.22,12.46-1.56,18.13-6.78,3.23-2.78,4.67-7.78,3.89,.67-.56,5.78-3.78,15.24-17.57,22.58-9.56,5.12-16.01,15.79-26.8,22.69-11.34,7.23-27.69,8.34-40.37,4.34-16.01-4.89-12.01-17.46-28.58-25.24-8.79-4.11-12.9-14.46-13.01-17.79,0-.89,.22-1.11,1.11-.89h0Z"/>
      <path class="cls-4" d="M88.19,24.35c7.45,4.11,17.24,13.23,21.69,29.14,6.78,24.91-.67,32.03,3.34,33.59,4.11,1.56,25.58-13.01,28.36-18.91,.67-1.33,1.56-.89,2.34,.89,2.56,5.78,3.89,24.91-10.23,37.37-1.45,1.22-2.78,2.89,.11,2.67,4.67-.22,12.46-1.56,18.13-6.78,3.23-2.78,4.67-7.78,3.89,.67-.56,5.78-3.78,15.24-17.57,22.58-9.56,5.12-16.01,15.79-26.8,22.69-6.56,4.23-14.9,6.34-23.24,6.67V24.35Z"/>
      <path class="cls-2" d="M85.3,151.02s-15.35-.44-19.46-9.01c-4.23-8.56,4.11-10.68,.89-15.24-3.23-4.56-5.56-8.56-2.11-7.34,3.34,1.22,13.01,7.78,13.46,2.22,.44-5.67-5-13.23-.11-19.13,4.78-5.89,9.9-7.45,10.12-14.46,.11-7.01,6.01,4,2.45,9.56-3.56,5.67-7.01,7.23-1.33,11.34,5.56,4.23,7.01,2.34,6.67,7.34-.33,5,7.23,7.78,11.45,1,4.23-6.9-2.11-16.01-.89-15.79,1.22,.33,8.9,12.34,4.67,20.13-2,3.67-1.89,5.23-1.22,6.78,8.12,18.79-9.12,23.02-24.58,22.58h0Z"/>
      <path class="cls-5" d="M88.19,86.52c1-3.45,5.56,6.12,2.34,11.12-.78,1.33-1.56,2.34-2.34,3.34v-14.46Zm0,21.8c.33,.22,.67,.44,1,.67,5.56,4.23,7.01,2.34,6.67,7.34-.33,5,7.23,7.78,11.45,1,4.23-6.9-2.11-16.01-.89-15.79,1.22,.33,8.9,12.34,4.67,20.13-2,3.67-1.89,5.23-1.22,6.78,7.56,17.57-7.01,22.35-21.69,22.58v-42.7Z"/>
    </g>
  </g>
</svg>