<?xml version="1.0" encoding="UTF-8"?>
<svg id="Camada_2" data-name="Camada 2" xmlns="http://www.w3.org/2000/svg" viewBox="0 0 176.49 176.38">
  <defs>
    <style>
      .cls-1 {
        fill: #fff;
      }

      .cls-1, .cls-2, .cls-3, .cls-4 {
        fill-rule: evenodd;
      }

      .cls-2 {
        fill: #65cdf6;
      }

      .cls-3 {
        fill: #c9ebf9;
      }

      .cls-4 {
        fill: #1fafdf;
      }
    </style>
  </defs>
  <g id="Layer_1" data-name="Layer 1">
    <g>
      <path class="cls-2" d="M88.19,0c48.82,0,88.3,39.48,88.3,88.19s-39.48,88.19-88.3,88.19S0,136.9,0,88.19,39.48,0,88.19,0h0Z"/>
      <path class="cls-4" d="M88.19,0c48.82,0,88.3,39.48,88.3,88.19s-39.48,88.19-88.3,88.19V0Z"/>
      <path class="cls-1" d="M87.97,24.36h0c2.89,0,5.34,2.45,5.34,5.45v5.34l1.78-1.78c2.11-2.11,5.56-2.11,7.67,0h0c2,2.11,2,5.56,0,7.67l-9.45,9.34v28.58l25.13-14.46,3.45-12.79c.78-2.89,3.78-4.67,6.56-3.89h0c2.89,.78,4.67,3.78,3.89,6.67l-.67,2.34,4.67-2.67c2.56-1.56,5.89-.67,7.34,2h0c1.56,2.56,.67,5.89-1.89,7.34l-4.67,2.67,2.34,.67c2.89,.78,4.56,3.78,3.78,6.56h0c-.78,2.89-3.67,4.67-6.56,3.89l-12.79-3.45-24.47,14.12,24.02,13.9,12.79-3.45c2.89-.78,5.89,1,6.67,3.89h0c.78,2.78-1,5.78-3.78,6.56l-2.45,.67,4.67,2.67c2.56,1.45,3.45,4.78,2,7.34h0c-1.45,2.67-4.78,3.56-7.45,2l-4.56-2.67,.56,2.34c.78,2.89-.89,5.89-3.78,6.67h0c-2.89,.78-5.89-1-6.67-3.89l-3.34-12.79-24.8-14.23v29.03l9.45,9.34c2,2.11,2,5.56,0,7.67h0c-2.11,2.11-5.56,2.11-7.67,0l-1.78-1.78v5.34c0,3-2.45,5.45-5.34,5.45h0c-3,0-5.45-2.45-5.45-5.45v-5.34l-1.78,1.78c-2,2.11-5.45,2.11-7.56,0h0c-2.11-2.11-2.11-5.56,0-7.67l9.34-9.34v-28.25l-24.13,13.9-3.34,12.79c-.78,2.89-3.78,4.56-6.67,3.78h0c-2.89-.78-4.56-3.78-3.78-6.56l.56-2.45-4.67,2.78c-2.56,1.45-5.89,.56-7.34-2h0c-1.45-2.56-.56-5.89,2-7.45l4.56-2.67-2.34-.56c-2.78-.78-4.56-3.78-3.78-6.67h0c.78-2.89,3.78-4.56,6.67-3.89l12.79,3.45,24.69-14.23-25.13-14.46-12.79,3.45c-2.89,.67-5.89-1-6.56-3.89h0c-.78-2.89,.89-5.89,3.78-6.67l2.34-.56-4.67-2.67c-2.56-1.56-3.45-4.89-1.89-7.45h0c1.45-2.56,4.78-3.45,7.34-2l4.67,2.67-.67-2.34c-.78-2.78,1-5.78,3.78-6.56h0c2.89-.78,5.89,.89,6.67,3.78l3.45,12.79,24.47,14.12v-27.8l-9.34-9.34c-2.11-2.11-2.11-5.56,0-7.67h0c2.11-2.11,5.56-2.11,7.56,0l1.78,1.78v-5.34c0-3,2.45-5.45,5.45-5.45h0Z"/>
      <path class="cls-3" d="M88.19,24.36c2.89,.11,5.12,2.56,5.12,5.45v5.34l1.78-1.78c2.11-2.11,5.56-2.11,7.67,0h0c2,2.11,2,5.56,0,7.67l-9.45,9.34v28.58l25.13-14.46,3.45-12.79c.78-2.89,3.78-4.67,6.56-3.89h0c2.89,.78,4.67,3.78,3.89,6.67l-.67,2.34,4.67-2.67c2.56-1.56,5.89-.67,7.34,2h0c1.56,2.56,.67,5.89-1.89,7.34l-4.67,2.67,2.34,.67c2.89,.78,4.56,3.78,3.78,6.56h0c-.78,2.89-3.67,4.67-6.56,3.89l-12.79-3.45-24.47,14.12,24.02,13.9,12.79-3.45c2.89-.78,5.89,1,6.67,3.89h0c.78,2.78-1,5.78-3.78,6.56l-2.45,.67,4.67,2.67c2.56,1.45,3.45,4.78,2,7.34h0c-1.45,2.67-4.78,3.56-7.45,2l-4.56-2.67,.56,2.34c.78,2.89-.89,5.89-3.78,6.67h0c-2.89,.78-5.89-1-6.67-3.89l-3.34-12.79-24.8-14.23v29.03l9.45,9.34c2,2.11,2,5.56,0,7.67h0c-2.11,2.11-5.56,2.11-7.67,0l-1.78-1.78v5.34c0,2.89-2.22,5.34-5.12,5.45V24.36Z"/>
    </g>
  </g>
</svg>