<?xml version="1.0" encoding="UTF-8"?>
<svg id="Camada_2" data-name="Camada 2" xmlns="http://www.w3.org/2000/svg" viewBox="0 0 176.49 176.49">
  <defs>
    <style>
      .cls-1 {
        fill: #56b947;
      }

      .cls-1, .cls-2, .cls-3, .cls-4 {
        fill-rule: evenodd;
      }

      .cls-2 {
        fill: #e8e85f;
      }

      .cls-3 {
        fill: #459f46;
      }

      .cls-4 {
        fill: #bfd330;
      }
    </style>
  </defs>
  <g id="Layer_1" data-name="Layer 1">
    <g>
      <path class="cls-1" d="M88.19,0c48.82,0,88.3,39.48,88.3,88.19s-39.48,88.3-88.3,88.3S0,137.01,0,88.19,39.48,0,88.19,0h0Z"/>
      <path class="cls-3" d="M88.19,0c48.82,0,88.3,39.48,88.3,88.19s-39.48,88.3-88.3,88.3V0Z"/>
      <path class="cls-2" d="M84.41,26.13c-17.24,14.01-68.06,77.07-8.56,110.21,13.12,7.34,8.79,23.13,8.79,23.13,1.56,.33,5.45,.33,7.01,0,0,0-4.34-15.68,8.79-23.13,67.62-38.59,4.45-63.61-8.45-110.1-1.11-4-4.56-2.56-7.56-.11h0Z"/>
      <path class="cls-4" d="M88.19,159.7c1.33,0,2.67-.11,3.45-.22,0,0-4.34-15.68,8.79-23.13,67.62-38.59,4.45-63.61-8.45-110.1-.67-2.34-2.11-2.78-3.78-2.34V159.7Z"/>
    </g>
  </g>
</svg>