<?xml version="1.0" encoding="UTF-8"?>
<svg id="Camada_2" data-name="Camada 2" xmlns="http://www.w3.org/2000/svg" viewBox="0 0 176.49 176.49">
  <defs>
    <style>
      .cls-1 {
        fill: #56b947;
      }

      .cls-1, .cls-2, .cls-3, .cls-4 {
        fill-rule: evenodd;
      }

      .cls-2 {
        fill: #e8e85f;
      }

      .cls-3 {
        fill: #459f46;
      }

      .cls-4 {
        fill: #bfd330;
      }
    </style>
  </defs>
  <g id="Layer_1" data-name="Layer 1">
    <g>
      <path class="cls-1" d="M88.19,0c48.82,0,88.3,39.48,88.3,88.3s-39.48,88.19-88.3,88.19S0,137.01,0,88.3,39.48,0,88.19,0h0Z"/>
      <path class="cls-3" d="M88.19,0c48.82,0,88.3,39.48,88.3,88.3s-39.48,88.19-88.3,88.19V0Z"/>
      <path class="cls-2" d="M105.54,61.94c2.34,1.11,4.56,2.45,6.56,4h0l5.89-5.89h0c1.33-1.33,3.56-1.33,4.89,0h0l5.89,5.89c1.33,1.33,1.33,3.56,0,4.89h0c-1.33,1.33-3.45,1.33-4.78,0l-3.56-3.56-3.56,3.45c3.89,4.78,6.56,11.01,7.45,18.57l1-1h0c1.33-1.33,3.45-1.33,4.78,0h0l6.01,5.89c1.33,1.33,1.33,3.45,0,4.78h0c-1.33,1.33-3.56,1.33-4.78,0l-3.56-3.45-3.23,3.11c-.33,6.12-1.67,11.9-3.78,17.02l4.23,.11h0c1.89,0,3.45,1.56,3.45,3.34h0l-.11,8.45c0,1.89-1.56,3.34-3.45,3.34h0c-1.78,0-3.34-1.56-3.34-3.34v-5l-4.11-.11c-6.67,11.01-17.24,18.13-29.25,18.13s-22.46-7.12-29.14-18.13l-4.11,.11v5c0,1.78-1.56,3.34-3.34,3.34h0c-1.89,0-3.45-1.45-3.45-3.34l-.11-8.45h0c0-1.78,1.56-3.34,3.45-3.34h0l4.23-.11c-2.11-5.12-3.45-10.9-3.78-17.02l-3.23-3.11-3.56,3.45c-1.22,1.33-3.45,1.33-4.78,0h0c-1.33-1.33-1.33-3.45,0-4.78l6.01-5.89h0c1.33-1.33,3.45-1.33,4.78,0h0l1,1c.89-7.56,3.56-13.79,7.45-18.57l-3.56-3.45-3.56,3.56c-1.33,1.33-3.45,1.33-4.78,0h0c-1.33-1.33-1.33-3.56,0-4.89l5.89-5.89h0c1.33-1.33,3.56-1.33,4.78,0h0l6.01,5.89h0c2-1.56,4.23-2.89,6.56-4-.11-.56-.22-1.22-.22-1.89,0-5.89,3-12.79,8.56-16.35l-2.89-2.89-2.11,2.11c-.78,.78-2,.78-2.78,0h0c-.89-.78-.89-2.11,0-2.89l3.45-3.45h0c.78-.78,2.11-.78,2.89,0h0l5.34,5.34c1.56-.56,3.23-.78,5-.78,1.89,0,3.56,.22,5.12,.78l5.34-5.34h0c.78-.78,2.11-.78,2.89,0h0l3.45,3.45c.89,.78,.89,2.11,0,2.89h0c-.78,.78-2,.78-2.78,0l-2.11-2.11-2.89,2.89c5.56,3.56,8.56,10.45,8.56,16.35,0,.67-.11,1.33-.22,1.89h0Z"/>
      <path class="cls-4" d="M105.54,61.94c2.34,1.11,4.56,2.45,6.56,4h0l5.89-5.89h0c1.33-1.33,3.56-1.33,4.89,0h0l5.89,5.89c1.33,1.33,1.33,3.56,0,4.89h0c-1.33,1.33-3.45,1.33-4.78,0l-3.56-3.56-3.56,3.45c3.89,4.78,6.56,11.01,7.45,18.57l1-1h0c1.33-1.33,3.45-1.33,4.78,0h0l6.01,5.89c1.33,1.33,1.33,3.45,0,4.78h0c-1.33,1.33-3.56,1.33-4.78,0l-3.56-3.45-3.23,3.11c-.33,6.12-1.67,11.9-3.78,17.02l4.23,.11h0c1.89,0,3.45,1.56,3.45,3.34h0l-.11,8.45c0,1.89-1.56,3.34-3.45,3.34h0c-1.78,0-3.34-1.56-3.34-3.34v-5l-4.11-.11c-6.67,11.01-17.24,18.13-29.25,18.13V41.15c1.89,0,3.56,.22,5.12,.78l5.34-5.34h0c.78-.78,2.11-.78,2.89,0h0l3.45,3.45c.89,.78,.89,2.11,0,2.89h0c-.78,.78-2,.78-2.78,0l-2.11-2.11-2.89,2.89c5.56,3.56,8.56,10.45,8.56,16.35,0,.67-.11,1.33-.22,1.89h0Z"/>
    </g>
  </g>
</svg>