<?xml version="1.0" encoding="UTF-8"?>
<svg id="Camada_2" data-name="Camada 2" xmlns="http://www.w3.org/2000/svg" viewBox="0 0 1546.33 275.87">
  <g id="Camada_1-2" data-name="Camada 1">
    <g>
      <g id="Layer_1" data-name="Layer 1">
        <g>
          <path d="M125.86,164.14c-16.41,0-30.44-10.34-35.94-24.85H16.62c3.13,25.58,15.06,49.13,34.32,67.06,20.05,18.67,46.54,29.19,73.93,29.43,29.77,.26,57.8-11.21,78.82-32.24,17.55-17.55,28.45-39.99,31.41-64.25h-73.3c-5.5,14.5-19.53,24.85-35.94,24.85Z" style="fill: #f4f3f3; stroke: #000; stroke-miterlimit: 10; stroke-width: 5px;"/>
          <circle cx="125.86" cy="125.86" r="25.13" style="fill: #f4f3f3; stroke: #000; stroke-miterlimit: 10; stroke-width: 5px;"/>
          <path d="M50.91,45.27c-19.24,17.93-31.17,41.47-34.29,67.03H89.92c5.5-14.5,19.53-24.85,35.94-24.85s30.44,10.34,35.94,24.85h73.3c-2.97-24.26-13.86-46.7-31.41-64.25-21.04-21.04-49.09-32.51-78.88-32.24-27.39,.25-53.87,10.79-73.9,29.46Z" style="fill: #ed1c24; stroke: #000; stroke-miterlimit: 10; stroke-width: 5px;"/>
          <path d="M125.86,2.5c-32.95,0-63.93,12.83-87.23,36.13C15.33,61.93,2.5,92.91,2.5,125.86s12.83,63.93,36.13,87.23c23.3,23.3,54.28,36.13,87.23,36.13s63.93-12.83,87.23-36.13c23.3-23.3,36.13-54.28,36.13-87.23s-12.83-63.93-36.13-87.23C189.79,15.33,158.81,2.5,125.86,2.5Zm77.83,201.04c-21.04,21.04-49.09,32.51-78.88,32.24-27.39-.25-53.87-10.79-73.9-29.46-19.24-17.93-31.17-41.47-34.29-67.03H89.92c5.5,14.5,19.53,24.85,35.94,24.85s30.44-10.34,35.94-24.85h73.3c-2.97,24.26-13.86,46.7-31.41,64.25ZM100.73,125.86c0-13.86,11.27-25.13,25.13-25.13s25.13,11.27,25.13,25.13-11.27,25.13-25.13,25.13-25.13-11.27-25.13-25.13Zm60.77-13.58c-5.2-14.5-19.23-24.85-35.64-24.85s-30.44,10.34-35.94,23.86H16.62c2.97-23.27,13.86-45.71,31.41-63.26C68.82,27.24,96.46,15.8,125.86,15.8s57.04,11.45,77.83,32.24c17.55,17.55,28.45,39.99,31.41,64.25h-73.6Z" style="stroke: #000; stroke-miterlimit: 10; stroke-width: 5px;"/>
        </g>
      </g>
      <text transform="translate(267.69 196.63)" style="font-family: PokemonSolidNormal, &apos;Pokemon Solid&apos;; font-size: 161.86px; letter-spacing: .08em; stroke: #fff; stroke-miterlimit: 10; stroke-width: 5px;"><tspan x="0" y="0">PokeCodeDawn</tspan></text>
    </g>
  </g>
</svg>