<?xml version="1.0" encoding="UTF-8"?>
<svg id="Camada_2" data-name="Camada 2" xmlns="http://www.w3.org/2000/svg" viewBox="0 0 176.49 176.49">
  <defs>
    <style>
      .cls-1 {
        fill: #b92025;
      }

      .cls-1, .cls-2, .cls-3, .cls-4 {
        fill-rule: evenodd;
      }

      .cls-2 {
        fill: #e8e85f;
      }

      .cls-3 {
        fill: #8f191c;
      }

      .cls-4 {
        fill: #bfd330;
      }
    </style>
  </defs>
  <g id="Layer_1" data-name="Layer 1">
    <g>
      <path class="cls-1" d="M88.19,0c48.82,0,88.3,39.48,88.3,88.3s-39.48,88.19-88.3,88.19S0,137.01,0,88.3,39.48,0,88.19,0h0Z"/>
      <path class="cls-3" d="M88.19,0c48.82,0,88.3,39.48,88.3,88.3s-39.48,88.19-88.3,88.19V0Z"/>
      <path class="cls-2" d="M50.93,32.81h0c5.78,0,10.56,4.78,10.56,10.68v21.02c0,5.78-4.78,10.57-10.56,10.57h0c-5.89,0-10.68-4.78-10.68-10.57v-21.02c0-5.89,4.78-10.68,10.68-10.68h0Zm53.27,93.64c4.78,0,8.67,3.89,8.67,8.67v7.01c0,4.78-4,8.79-8.67,8.79h-29.58c-4.78,0-8.67-4-8.67-8.79v-7.01c0-4.78,3.89-8.67,8.67-8.67h29.58Zm23.24-46.71c4.78,0,8.79,3.89,8.79,8.67v24.8c0,4.78-4,8.79-8.79,8.79h-41.48c-4.56,0-8.23-3.78-8.23-8.34s3.67-8.23,8.23-8.23h10.56v-17.02c0-4.78,3.89-8.67,8.67-8.67h22.24Zm-78.4,0c-4.78,0-8.79,3.89-8.79,8.67v24.8c0,4.78,4,8.79,8.79,8.79h15.46c4.78,0,8.67-4,8.67-8.79v-12.23h8.23c5.89,0,10.68-4.78,10.68-10.68s-4.78-10.57-10.68-10.57H49.04ZM126.78,37.48h0c5.12,0,9.45,4.23,9.45,9.45v18.68c0,5.23-4.34,9.45-9.45,9.45h0c-5.23,0-9.45-4.23-9.45-9.45v-18.68c0-5.23,4.23-9.45,9.45-9.45h0Zm-50.16-11.79h0c5.78,0,10.56,4.78,10.56,10.57v28.25c0,5.78-4.78,10.57-10.56,10.57h0c-5.89,0-10.68-4.78-10.68-10.57v-28.25c0-5.78,4.78-10.57,10.68-10.57h0Zm25.58,7.12h0c5.89,0,10.68,4.78,10.68,10.68v21.02c0,5.78-4.78,10.57-10.68,10.57h0c-5.78,0-10.56-4.78-10.56-10.57v-21.02c0-5.89,4.78-10.68,10.56-10.68h0Z"/>
      <path class="cls-4" d="M88.19,150.8v-24.36h16.01c4.78,0,8.67,3.89,8.67,8.67v7.01c0,4.78-4,8.67-8.67,8.67h-16.01Zm0-28.8v-16.57h8.34v-17.02c0-4.78,3.89-8.67,8.67-8.67h22.24c4.78,0,8.79,3.89,8.79,8.67v24.8c0,4.78-4,8.79-8.79,8.79h-39.26Zm0-23.47v-16.35c2.34,2,3.89,4.89,3.89,8.12s-1.56,6.23-3.89,8.23h0Zm38.59-61.05h0c5.12,0,9.45,4.23,9.45,9.45v18.68c0,5.23-4.34,9.45-9.45,9.45h0c-5.23,0-9.45-4.23-9.45-9.45v-18.68c0-5.23,4.23-9.45,9.45-9.45h0Zm-24.58-4.67h0c5.89,0,10.68,4.78,10.68,10.68v21.02c0,5.78-4.78,10.57-10.68,10.57h0c-5.78,0-10.56-4.78-10.56-10.57v-21.02c0-5.89,4.78-10.68,10.56-10.68h0Z"/>
    </g>
  </g>
</svg>