<?xml version="1.0" encoding="UTF-8"?>
<svg id="Camada_2" data-name="Camada 2" xmlns="http://www.w3.org/2000/svg" viewBox="0 0 176.49 176.49">
  <defs>
    <style>
      .cls-1 {
        fill: #745c44;
      }

      .cls-1, .cls-2, .cls-3, .cls-4 {
        fill-rule: evenodd;
      }

      .cls-2 {
        fill: #533e28;
      }

      .cls-3 {
        fill: #352414;
      }

      .cls-4 {
        fill: #8b7e71;
      }
    </style>
  </defs>
  <g id="Layer_1" data-name="Layer 1">
    <g>
      <path class="cls-2" d="M88.19,0c48.71,0,88.3,39.48,88.3,88.19s-39.59,88.3-88.3,88.3S0,137.01,0,88.19,39.48,0,88.19,0h0Z"/>
      <path class="cls-3" d="M88.19,0c48.71,0,88.3,39.48,88.3,88.19s-39.59,88.3-88.3,88.3V0Z"/>
      <path class="cls-4" d="M90.19,131.78l36.14-62.95c.89-1.67-.22-3.45-2-3.45l-72.51,.22c-2.22,0-3.11,1.56-2,3.45l36.48,62.72c1.11,2,2.67,2,3.89,0h0Zm-14.68,26.91l-16.68-9.56c-1.78-1.11-2.67-2.45-2.67-4.56v-8.9c0-3.34,1.56-3.78,4.11-2.22l22.46,12.9c3,2,7.56,2,10.56,0l22.35-12.9c2.67-1.56,4.23-1.11,4.23,2.22v8.9c0,2.11-.89,3.45-2.67,4.56l-16.79,9.56c-8.23,4.89-16.57,4.89-24.91,0h0Zm79.63-94.08v19.35c0,2-.78,3.56-2.56,4.56l-7.78,4.45c-2.89,1.67-4,.56-4-2.45v-25.91c.22-3.67-2.11-7.56-5.34-9.12l-22.35-13.01c-2.67-1.45-3.11-3-.22-4.67l7.78-4.56c1.78-1,3.45-.89,5.23,.11l16.79,9.68c8.23,4.78,12.46,12.01,12.46,21.57h0ZM33.81,42.82l16.68-9.68c1.78-1,3.56-1.11,5.23-.11l7.78,4.45c2.89,1.67,2.45,3.34-.11,4.78l-22.46,12.9c-3.23,1.67-5.45,5.67-5.23,9.23v25.8c0,3-1.22,4.23-4,2.56l-7.78-4.45c-1.78-1-2.56-2.56-2.56-4.67v-19.24c0-9.56,4.11-16.79,12.46-21.57h0Z"/>
      <path class="cls-1" d="M90.19,131.78l36.14-62.95c.89-1.67-.22-3.45-2-3.45l-36.14,.11v67.84c.67,0,1.45-.56,2-1.56h0Zm-2,16.01v14.57c4.11-.11,8.23-1.22,12.23-3.67l16.79-9.56c1.78-1.11,2.67-2.45,2.67-4.56v-8.9c0-3.34-1.56-3.78-4.23-2.22l-22.35,12.9c-1.45,.89-3.23,1.45-5.12,1.45h0Zm66.95-83.19v19.35c0,2-.78,3.56-2.56,4.56l-7.78,4.45c-2.89,1.67-4,.56-4-2.45v-25.91c.22-3.67-2.11-7.56-5.34-9.12l-22.35-13.01c-2.67-1.45-3.11-3-.22-4.67l7.78-4.56c1.78-1,3.45-.89,5.23,.11l16.79,9.68c8.23,4.78,12.46,12.01,12.46,21.57h0Z"/>
    </g>
  </g>
</svg>