<?xml version="1.0" encoding="UTF-8"?>
<svg id="Camada_2" data-name="Camada 2" xmlns="http://www.w3.org/2000/svg" viewBox="0 0 176.49 176.49">
  <defs>
    <style>
      .cls-1 {
        fill: #f3b81a;
      }

      .cls-1, .cls-2, .cls-3, .cls-4 {
        fill-rule: evenodd;
      }

      .cls-2 {
        fill: #b11f83;
      }

      .cls-3 {
        fill: #f48b20;
      }

      .cls-4 {
        fill: #c03995;
      }
    </style>
  </defs>
  <g id="Layer_1" data-name="Layer 1">
    <g>
      <path class="cls-4" d="M88.3,0c48.71,0,88.19,39.48,88.19,88.3s-39.48,88.19-88.19,88.19S0,137.01,0,88.3,39.48,0,88.3,0h0Z"/>
      <path class="cls-2" d="M88.3,0c48.71,0,88.19,39.48,88.19,88.3s-39.48,88.19-88.19,88.19V0Z"/>
      <path class="cls-1" d="M88.3,20.13c10.79,0,21.13,2.56,30.25,7.12-3.89-1.11-7.9-1.67-12.12-1.67-25.58,0-46.26,20.8-46.26,46.37s20.69,46.26,46.26,46.26,46.37-20.69,46.37-46.26c0-2.45-.22-4.89-.56-7.23,2.67,7.34,4.11,15.24,4.11,23.58,0,37.59-30.47,68.06-68.06,68.06S20.13,125.89,20.13,88.3,50.6,20.13,88.3,20.13h0Z"/>
      <path class="cls-3" d="M88.3,20.13c10.79,0,21.13,2.56,30.25,7.12-3.89-1.11-7.9-1.67-12.12-1.67-6.45,0-12.57,1.33-18.13,3.78v-9.23Zm0,94.42c5.56,2.34,11.68,3.67,18.13,3.67,25.58,0,46.37-20.69,46.37-46.26,0-2.45-.22-4.89-.56-7.23,2.67,7.34,4.11,15.24,4.11,23.58,0,37.59-30.47,68.06-68.06,68.06v-41.82Z"/>
    </g>
  </g>
</svg>