<?xml version="1.0" encoding="UTF-8"?>
<svg id="Camada_2" data-name="Camada 2" xmlns="http://www.w3.org/2000/svg" viewBox="0 0 176.49 176.49">
  <defs>
    <style>
      .cls-1 {
        fill: #745c44;
      }

      .cls-1, .cls-2, .cls-3, .cls-4 {
        fill-rule: evenodd;
      }

      .cls-2 {
        fill: #a69f97;
      }

      .cls-3 {
        fill: #8b7e71;
      }

      .cls-4 {
        fill: #927f6c;
      }
    </style>
  </defs>
  <g id="Layer_1" data-name="Layer 1">
    <g>
      <path class="cls-2" d="M88.3,0c48.71,0,88.19,39.48,88.19,88.19s-39.48,88.3-88.19,88.3S0,137.01,0,88.19,39.48,0,88.3,0h0Z"/>
      <path class="cls-4" d="M88.3,0c48.71,0,88.19,39.48,88.19,88.19s-39.48,88.3-88.19,88.3V0Z"/>
      <path class="cls-3" d="M37.92,133.01c-10.45-3-10.9-6.01-7.56-14.01,12.68-31.03,31.25-60.05,47.82-77.74,3.11-3.34,7.45-2.78,11.01,0,5.23,3.89,6.12,10.45,11.01,17.02,1.78,2.45,14.68,2,16.46,4.67,1.56,2.34,3.22,4.89,4.78,7.56,1.89,3.23,3.67,6.45,5.34,9.45,3.67,6.56,4.34,8.67,.33,15.24l-21.35,35.03c-3.34,5.45-6.23,7.23-12.57,7.23-21.35,.33-43.59-1.22-55.27-4.45h0Zm102.87-26.25c1.89,4,3.67,8.12,5.34,12.23,3.34,8.01,3,11.01-7.56,14.01-4.34,1.22-10.12,2.22-16.79,2.89-6.01,.67-5.23-2.78-2.67-6.78l11.23-18.68c5.23-8.45,6.12-12.9,10.45-3.67h0Z"/>
      <path class="cls-1" d="M88.3,40.59c.22,.11,.56,.33,.89,.67,5.23,3.89,6.12,10.45,11.01,17.02,1.78,2.45,14.68,2,16.46,4.67,1.56,2.34,3.22,4.89,4.78,7.56,1.89,3.23,3.67,6.45,5.34,9.45,3.67,6.56,4.34,8.67,.33,15.24l-21.35,35.03c-3.34,5.45-6.23,7.23-12.57,7.23-1.67,.11-3.34,.11-4.89,.11V40.59Zm25.13-4.11c4.56,0,10.57,4.78,10.57,9.12s-5.89,9.56-10.45,9.56-6.12-5.34-6.12-9.56,1.33-9.12,6.01-9.12h0Zm27.36,70.29c1.89,4,3.67,8.12,5.34,12.23,3.34,8.01,3,11.01-7.56,14.01-4.34,1.22-10.12,2.22-16.79,2.89-6.01,.67-5.23-2.78-2.67-6.78l11.23-18.68c5.23-8.45,6.12-12.9,10.45-3.67h0Z"/>
    </g>
  </g>
</svg>