<?xml version="1.0" encoding="UTF-8"?>
<svg id="Camada_2" data-name="Camada 2" xmlns="http://www.w3.org/2000/svg" viewBox="0 0 210.16 302.04">
  <g id="Layer_1" data-name="Layer 1">
    <g>
      <g>
        <ellipse cx="105.08" cy="104.11" rx="103.46" ry="100.39" style="fill: #c33;"/>
        <path d="M105.08,0c58.08,0,105.08,47,105.08,105.08,0,17.4-4.18,33.78-11.64,48.25,0-.68-.11-1.24-.23-1.81-.11-.68-.34-1.47-.45-2.03-.11-.57-.23-1.13-.45-1.69-.23-1.24-.9-2.37-1.81-3.16,5.31-12.09,8.25-25.54,8.25-39.55,0-54.57-44.18-98.75-98.75-98.75S6.33,50.51,6.33,105.08c0,36.72,20.11,68.7,49.83,85.76-2.15,.9-3.5,2.94-3.73,5.2C21.13,177.84,0,143.95,0,105.08,0,47,47.12,0,105.08,0h0Zm0,27.91c42.6,0,77.17,34.57,77.17,77.17,0,7.8-1.13,15.25-3.28,22.37-1.02-.23-2.03-.34-2.94-.11,2.15-7.01,3.39-14.46,3.39-22.26,0-41.01-33.22-74.35-74.35-74.35S30.73,64.06,30.73,105.08c0,26.55,14.01,49.83,34.91,62.93-.11,1.24,0,2.49,.45,3.62-22.82-13.45-38.08-38.19-38.08-66.55,0-42.6,34.46-77.17,77.06-77.17h0Zm68.36,112.99c-.9,1.58-1.69,3.16-2.6,4.63-1.47-.11-2.82,.11-3.95,.9,1.69-2.6,3.28-5.31,4.75-8.14,.34,1.02,1.02,1.92,1.81,2.6h0Zm-9.04,13.56c-5.31,6.33-11.64,11.75-18.64,16.16,.56-1.13,.68-2.37,.45-3.62,6.78-4.52,12.77-10.17,17.74-16.61-.34,1.36-.11,2.82,.45,4.07h0Z" style="fill: #010101; fill-rule: evenodd;"/>
        <g>
          <path d="M209.33,207.08H.94c-.14,.35-.21,.73-.21,1.13,0,.15,.01,.3,.03,.45,.01,.12,.04,.24,.07,.36H.84c6.24,52.16,50.57,92.52,104.3,92.52s98.06-40.36,104.3-92.51h0c.03-.13,.06-.25,.07-.37,.02-.15,.03-.3,.03-.45,0-.4-.07-.78-.21-1.13Zm-8.15,12.43h-68.25c-6.77,8.02-16.83,12.77-27.34,12.77h-.9c-10.62,0-20.57-4.75-27.34-12.77H9.1c-.65-2.62-1.19-5.36-1.61-8.13H75.74c5.47,10.7,16.55,18.07,29.4,18.07s23.93-7.37,29.4-18.07h68.25c-.42,2.77-.96,5.51-1.61,8.13Z" style="fill: #fff; fill-rule: evenodd;"/>
          <path d="M.77,208.66c.01,.12,.04,.24,.07,.36H.84c6.24,52.16,50.57,92.52,104.3,92.52s98.06-40.36,104.3-92.51h0c.03-.13,.06-.25,.07-.37H.77Zm126.4,2.72c-4.81,7.09-12.9,11.75-22.03,11.75s-17.32-4.66-22.08-11.75h44.11Zm-22.03,83.72c-45.53,0-83.95-30.73-95.36-72.76H76.1c7.23,8.13,17.63,12.76,28.59,12.76h.9c10.96,0,21.24-4.63,28.59-12.76h66.21c-11.41,42.03-49.72,72.76-95.25,72.76Z" style="fill: #58595b; fill-rule: evenodd;"/>
          <path d="M203.21,208.21l-.06,.45c-.1,.91-.23,1.81-.36,2.72-.42,2.77-.96,5.51-1.61,8.13h-68.25c-6.77,8.02-16.83,12.77-27.34,12.77h-.9c-10.62,0-20.57-4.75-27.34-12.77H9.1c-.65-2.62-1.19-5.36-1.61-8.13-.13-.91-.26-1.81-.36-2.72-.02-.15-.04-.3-.06-.45H.74c.02,.15,.03,.3,.06,.45,.01,.12,.02,.24,.04,.36H.84c6.24,52.16,50.57,92.52,104.3,92.52s98.06-40.36,104.3-92.51h0c.02-.13,.03-.25,.04-.37,.03-.15,.04-.3,.06-.45h-6.33Zm-98.07,86.89c-45.53,0-83.95-30.73-95.36-72.76H76.1c7.23,8.13,17.63,12.76,28.59,12.76h.9c10.96,0,21.24-4.63,28.59-12.76h66.21c-11.41,42.03-49.72,72.76-95.25,72.76Z" style="fill: #010101; fill-rule: evenodd; stroke: #231f20; stroke-miterlimit: 10;"/>
          <path d="M137,205.05c-.19,.68-.4,1.36-.63,2.03-.18,.53-.38,1.06-.59,1.58-.37,.93-.78,1.84-1.24,2.72-5.47,10.7-16.55,18.07-29.4,18.07s-23.93-7.37-29.4-18.07c-.46-.88-.87-1.79-1.24-2.72-.21-.52-.41-1.05-.59-1.58-.23-.67-.44-1.35-.63-2.03h6.66c.23,.69,.49,1.37,.77,2.03,.23,.54,.48,1.07,.75,1.58,.48,.94,1.01,1.85,1.6,2.72,4.76,7.09,12.86,11.75,22.08,11.75s17.22-4.66,22.03-11.75c.59-.87,1.13-1.78,1.62-2.72,.27-.51,.52-1.04,.75-1.58,.3-.66,.56-1.34,.8-2.03h6.66Z" style="fill: #010101; fill-rule: evenodd;"/>
        </g>
      </g>
      <g>
        <g>
          <path d="M199.2,173.55c-2.22,6.45-6.23,10.27-10.87,12.1-.18,1.15-.37,2.19-.55,3.09h-30.6v-3.87c2.28-1.59,4.44-3.45,6.42-5.55-3.55-3.99-5.22-9.14-3.27-14.7,1.47-4.4,3.96-13.22,.91-17.51-1.25-1.69-1.58-3.61-1.13-5.65,.56-2.71,3.61-6.89,6.78-6.55,2.71,.22,3.73,3.61,2.14,5.76-1.13,1.24-.56,3.16,.68,4.07,1.47,1.13,2.37,.34,2.71-1.36,.34-1.92-.45-4.18-1.47-5.76-5.76-10.51-10.05-17.4-1.92-28.59,1.47-2.03,3.28-3.72,5.2-5.19,1.58-1.25,3.84-2.15,5.65-.68,1.13,.9,1.47,2.37,1.13,3.73-.23,1.24-1.24,3.27-1.81,4.52-2.94,6.78-4.07,13.44,3.84,17.28,7.69,3.85,12.66,11.3,15.26,19.21,2.6,7.69,3.61,17.85,.9,25.65Z" style="fill: #e41e26; fill-rule: evenodd;"/>
          <path d="M199.2,173.55c-2.22,6.45-6.23,10.27-10.87,12.1-.8,.32-1.62,.58-2.46,.78,.11-.9,.11-1.92-.11-2.82,1.04-.31,2.05-.71,3.02-1.24,3.34-1.78,6.16-4.9,7.82-9.72,3.96-11.64-.22-34.35-14.8-41.36-14.57-7-3.95-22.48-3.5-24.85,.22-1.36-.57-1.81-2.37-.34-1.93,1.47-3.39,2.93-4.64,4.63-7.45,10.28-2.71,16.61,2.15,25.42,4.75,8.7-.68,14.46-5.42,10.85-2.6-2.04-3.28-5.65-1.25-8.14,.46-.56,0-1.13-.11-1.24-1.13-.11-5.76,4.18-3.16,7.91,2.71,3.62,2.93,10.28-.57,20-1.46,4.28-.23,8.4,2.53,11.62,.43,.52,.92,1.01,1.43,1.48-.68,.68-1.25,1.59-1.47,2.49-.65-.57-1.25-1.17-1.82-1.8-3.55-3.99-5.22-9.14-3.27-14.7,1.47-4.4,3.96-13.22,.91-17.51-1.25-1.69-1.58-3.61-1.13-5.65,.56-2.71,3.61-6.89,6.78-6.55,2.71,.22,3.73,3.61,2.14,5.76-1.13,1.24-.56,3.16,.68,4.07,1.47,1.13,2.37,.34,2.71-1.36,.34-1.92-.45-4.18-1.47-5.76-5.76-10.51-10.05-17.4-1.92-28.59,1.47-2.03,3.28-3.72,5.2-5.19,1.58-1.25,3.84-2.15,5.65-.68,1.13,.9,1.47,2.37,1.13,3.73-.23,1.24-1.24,3.27-1.81,4.52-2.94,6.78-4.07,13.44,3.84,17.28,7.69,3.85,12.66,11.3,15.26,19.21,2.6,7.69,3.61,17.85,.9,25.65Z" style="fill: #010101; fill-rule: evenodd;"/>
        </g>
        <path d="M209.6,207.88c0,.91-.37,1.7-.95,2.26-.58,.57-1.37,.91-2.22,.91H9.2v-6.33H42.81c3.05-7.04,9.99-13.81,14.48-17.5,3.88-3.27,8.81-6.68,13.99-8.81-.53-.36-1.05-.74-1.56-1.13-8.82-6.67-16.39-16.61-16.61-28.02-.12-4.97,.79-10.06,1.47-14.92,.79-5.08,1.47-9.94,1.24-15.14-.11-2.14-.34-4.52-.11-6.66,2.37-25.99,22.82-46.89,49.37-46.89s47,20.9,49.49,46.89c.11,2.14,0,4.4-.11,6.66-.23,5.2,.34,10.06,1.13,15.14,.75,4.59,1.59,9.38,1.59,14.08,0,.28,0,.56-.01,.84-.34,11.41-7.8,21.35-16.61,28.02-.52,.39-1.05,.78-1.59,1.15,5.12,2.12,10.03,5.52,13.91,8.79,.07,.06,.14,.11,.21,.17,1.4-.75,2.77-1.59,4.09-2.52,2.28-1.59,4.44-3.45,6.42-5.55,.04-.04,.08-.08,.12-.12,.59-.66,1.17-1.34,1.74-2.05,3.61-4.55,6.48-10.12,7.75-15.69,1.02-4.97,6.67-7.91,11.19-4.86,5.71,3.75,5.51,16.55,4.38,25.77-.14,1.16-.29,2.26-.45,3.28-.18,1.15-.37,2.19-.55,3.09-.07,.39-.15,.75-.22,1.08-1.02,4.92-2.65,10.23-5.21,14.9h24.08c1.7,0,3.17,1.47,3.17,3.16Z" style="fill: #ed8322; fill-rule: evenodd;"/>
        <path d="M155.59,134.34c-.79-5.08-1.36-9.94-1.13-15.14,.11-2.26,.22-4.52,.11-6.66-2.49-25.99-22.94-46.89-49.49-46.89s-47,20.9-49.37,46.89c-.23,2.14,0,4.52,.11,6.66,.23,5.2-.45,10.06-1.24,15.14-.68,4.86-1.59,9.95-1.47,14.92,.22,11.41,7.79,21.35,16.61,28.02,.51,.39,1.03,.77,1.56,1.13,2.32,1.63,4.76,3.08,7.31,4.34,8.2,4.09,17.41,6.28,26.49,6.28s18.38-2.19,26.58-6.27c2.55-1.26,4.99-2.71,7.31-4.33,.54-.37,1.07-.76,1.59-1.15,8.81-6.67,16.27-16.61,16.61-28.02,.01-.28,.01-.56,.01-.84,0-4.7-.84-9.49-1.59-14.08Zm-4.75,14.81c-.45,16.72-21.92,33.55-45.76,33.55-11.92,0-23.22-4.21-31.59-10.51-8.37-6.29-13.83-14.68-14.05-23.04-.23-8.48,2.71-18.31,2.71-30.17-.12-1.36-.34-4.41-.12-5.88,1.02-22.93,19.89-41.13,43.05-41.13s42.03,18.2,43.16,41.13c.23,1.47,0,4.52-.11,5.88-.11,11.86,2.94,21.69,2.71,30.17Z" style="fill: #010101; fill-rule: evenodd;"/>
        <path d="M81.24,182.59h-1.35c-.43,.03-.86,.08-1.3,.16-9.68,1.59-23,12.98-28.42,21.97-.65,1.06-1.18,2.09-1.58,3.07-2.15,0-4.52-.12-6.78-.23,.25-.95,.59-1.89,1-2.84,3.05-7.04,9.99-13.81,14.48-17.5,3.88-3.27,8.81-6.68,13.99-8.81,1.61-.67,3.25-1.21,4.88-1.58,2.37,1.69,4.06,3.95,5.08,5.76Z" style="fill: #010101; fill-rule: evenodd;"/>
        <path d="M168.47,207.56c-2.26,.11-4.63,.23-6.78,.23-.4-.98-.94-2.01-1.58-3.07-5.43-8.97-18.77-20.31-28.45-21.96-.47-.08-.93-.14-1.38-.17h-1.24c.9-1.81,2.71-4.07,5.08-5.76,1.62,.38,3.24,.92,4.85,1.6,5.12,2.12,10.03,5.52,13.91,8.79,.07,.06,.14,.11,.21,.17,1.46,1.22,3.18,2.76,4.93,4.51,3.6,3.61,7.34,8.16,9.41,12.82,.42,.95,.77,1.89,1.04,2.84Z" style="fill: #010101; fill-rule: evenodd;"/>
        <path d="M63.5,208.58c4.63-9.38,11.07-19.55,19.89-21.35-4.52,6.21-8.7,13.45-12.09,20.11-2.71,.45-5.31,.79-7.8,1.24h0Z" style="fill: #010101; fill-rule: evenodd;"/>
        <path d="M146.66,208.58c-4.52-9.38-11.07-19.55-19.89-21.35,4.52,6.21,8.7,13.45,12.2,20.11,2.6,.45,5.2,.79,7.68,1.24h0Z" style="fill: #010101; fill-rule: evenodd;"/>
        <path d="M188.78,182.37c-.14,1.16-.29,2.26-.45,3.28-.18,1.15-.37,2.19-.55,3.09-.07,.39-.15,.75-.22,1.08-1.02,4.92-2.65,10.23-5.21,14.9-.55,1.02-1.15,2-1.79,2.95-.57-.22-1.13-.34-1.7-.34-.67-.22-1.24-.22-1.92-.22-1.24-.34-2.48-.34-3.73-.34,.59-.63,1.15-1.31,1.68-2.05,3.05-4.2,5.13-10,6.41-15.98,2.65-12.28,1.97-25.32-.4-26.83-.68-.45-1.36-.11-1.59,.91-1.61,7.53-6.57,18.06-16.69,25.92-1.43,1.11-2.96,2.17-4.6,3.16-1.37,.83-2.82,1.61-4.35,2.33,.34-2.26-.46-4.52-2.26-5.99,.57-.27,1.12-.55,1.68-.85,1.4-.75,2.77-1.59,4.09-2.52,2.28-1.59,4.44-3.45,6.42-5.55,.04-.04,.08-.08,.12-.12,.59-.66,1.17-1.34,1.74-2.05,3.61-4.55,6.48-10.12,7.75-15.69,1.02-4.97,6.67-7.91,11.19-4.86,5.71,3.75,5.51,16.55,4.38,25.77Z" style="fill: #010101; fill-rule: evenodd;"/>
      </g>
      <g>
        <path d="M98.86,151.74c.79,0,1.47,.56,1.47,1.36s-.68,1.47-1.47,1.47-1.36-.68-1.36-1.47,.56-1.36,1.36-1.36h0Z" style="fill: #010101; fill-rule: evenodd;"/>
        <path d="M111.29,151.74c.79,0,1.47,.56,1.47,1.36s-.68,1.47-1.47,1.47-1.36-.68-1.36-1.47,.57-1.36,1.36-1.36h0Z" style="fill: #010101; fill-rule: evenodd;"/>
        <path d="M82.82,153.55c-4.48-.6-15.59-8.14-19.32-5.39v4.85c2.85,7.21,14.87,14.52,20,17.6,13.3,8.3,29.87,8.3,43.16,0,7.12-3.84,17.85-11.52,20.79-19.32,2.22-13.45-30.47,16.7-64.63,2.26Zm-17.4-3.28c-.28-.73,2.12,.61,10,3.61-1.47,1.42-2.81,2.96-3.87,4.67-2.98-2.85-5.18-5.72-6.13-8.28Zm73.25,8.34c-1.05-1.68-2.35-3.2-3.79-4.59,3.57-1.24,6.92-2.54,9.97-3.75-.96,2.57-3.17,5.47-6.18,8.34Z" style="fill: #ed8499; fill-rule: evenodd;"/>
        <path d="M144.85,147.75v2.52c-3.05,1.21-6.4,2.51-9.97,3.75-.98,.34-1.99,.68-3,1.01-.3,.1-.61,.2-.92,.3-.39,3.04-.82,7.22-4.41,7.94-3.19,.6-4.97-2.41-5.88-5.14-9.97,2.23-20.79,3.09-31.36,.53-.93,2.61-2.69,5.16-5.7,4.61-3.61-.72-4.01-4.93-4.41-7.98-.29-.11-.58-.22-.86-.32-1.05-.38-2.02-.75-2.92-1.09-7.48-2.85-10.02-4.2-10.02-3.71v-2.6c4.73-.24,13.55,5.46,17.42,5.98,27.31,11.55,53.69-5.42,62.03-5.8Z" style="fill: #fff; fill-rule: evenodd;"/>
        <path d="M144.85,150.27v5.64c-4.48,6.09-12.49,11.63-18.19,14.7-13.29,8.3-29.86,8.3-43.16,0-4.34-2.61-13.62-8.25-18.1-14.29v-6.15s0,.06,.02,.1c.95,2.56,3.15,5.43,6.13,8.28,.67,.65,1.38,1.29,2.13,1.93,2.96,2.52,6.48,4.97,10.21,7.09,1.11-2.37,2.61-4.57,5.37-4.3,4.07,.34,4.52,5.42,4.3,8.59l-.02,.17c4.03,1.45,8,2.31,11.54,2.31s7.52-.85,11.54-2.29v-.19c-.24-3.17,.21-8.25,4.28-8.59,2.82-.27,4.33,1.95,5.4,4.33,3.73-2.11,7.25-4.55,10.22-7.07,.75-.63,1.47-1.27,2.15-1.91h0c3.01-2.88,5.22-5.78,6.18-8.35Z" style="fill: #fff; fill-rule: evenodd;"/>
        <path d="M144.85,147.75c-8.34,.38-34.72,17.35-62.03,5.8-3.87-.52-12.69-6.22-17.42-5.98-.75,.03-1.39,.22-1.9,.59-.16,.11-.32,.26-.45,.42-.34,1.45-.14,2.94,.45,4.43,.44,1.1,1.09,2.21,1.9,3.31,4.48,6.04,13.76,11.68,18.1,14.29,13.3,8.3,29.87,8.3,43.16,0,5.7-3.07,13.71-8.61,18.19-14.7,1.12-1.51,2.01-3.06,2.6-4.62,.44-2.7-.51-3.64-2.6-3.54Zm-6.18,10.86h0c-.68,.65-1.4,1.29-2.15,1.92-2.97,2.52-6.49,4.96-10.22,7.07-.8,.45-1.61,.88-2.42,1.3-1.46,.75-2.94,1.44-4.43,2.06h0c-.94,.4-1.89,.76-2.83,1.09-4.02,1.44-7.99,2.29-11.54,2.29s-7.51-.86-11.54-2.31c-.94-.33-1.88-.69-2.82-1.09-1.48-.63-2.96-1.32-4.42-2.07-.81-.42-1.61-.85-2.41-1.3-3.73-2.12-7.25-4.57-10.21-7.09-.75-.64-1.46-1.28-2.13-1.93-2.98-2.85-5.18-5.72-6.13-8.28-.01-.04-.02-.07-.02-.1,0-.49,2.54,.86,10.02,3.71,.9,.34,1.87,.71,2.92,1.09,.28,.1,.57,.21,.86,.32,.86,.31,1.77,.64,2.72,.97,.1,.04,.19,.08,.29,.11,1.43,.59,2.88,1.1,4.33,1.53,.92,.29,1.85,.54,2.77,.76,10.57,2.56,21.39,1.7,31.36-.53,.94-.21,1.87-.43,2.79-.66,1.54-.39,3.05-.8,4.53-1.24,1.01-.29,2-.59,2.97-.9,.31-.1,.62-.2,.92-.3,1.01-.33,2.02-.67,3-1.01,3.57-1.24,6.92-2.54,9.97-3.75-.96,2.57-3.17,5.47-6.18,8.34Z" style="fill: #010101; fill-rule: evenodd;"/>
        <path d="M126.3,167.6c-1.07-2.38-2.58-4.6-5.4-4.33-4.07,.34-4.52,5.42-4.29,8.59v.19s.11,1.39,.11,1.39c.79-.45,1.58-.79,2.49-.91,.33-.11,.67-.22,1.01-.34l1.13-.45-1.92-.11s0-.26,.02-.66h0c.06-1.46,.35-4.79,1.68-4.88,1.29-.17,2.12,1.3,2.75,2.81,.19,.47,.36,.94,.52,1.37,.34-.11,.57-.22,.79-.22,.79-.34,1.25-.34,1.92-.45-.25-.65-.51-1.33-.81-2Zm2.06-14.05c-.45,.11-1.36,.57-1.7,.79l1.58-.45c-.05,.22-.09,1.2-.25,2.34-.23,1.8-.76,4-2.01,4.21-1.15,.27-2.03-1.49-2.52-2.97-.13-.4-.23-.78-.3-1.09-.9,.45-1.81,.67-2.82,.67,.09,.35,.2,.71,.33,1.08,.91,2.73,2.69,5.74,5.88,5.14,3.59-.72,4.02-4.9,4.41-7.94,.03-.3,.07-.59,.11-.87l.34-1.47c-1.13,.45-1.92,.56-3.05,.56Zm-39.1,9.72c-2.76-.27-4.26,1.93-5.37,4.3-.3,.64-.58,1.29-.84,1.91,1.02,.12,1.81,.57,2.71,.79,.16-.44,.34-.92,.54-1.4,.63-1.5,1.45-2.95,2.74-2.78,1.41,.1,1.65,3.39,1.68,4.85,.02,.42,.01,.69,.01,.69l-1.13,.11c1.36,.12,2.71,.57,3.84,1.25l.1-.96,.02-.17c.22-3.17-.23-8.25-4.3-8.59Zm-2.26-6.89c-.09,.42-.25,.97-.46,1.52-.5,1.37-1.31,2.78-2.36,2.54-1.23-.16-1.74-2.28-1.97-4.07-.1-.69-.15-1.34-.18-1.8-.68-.23-1.35-.57-1.92-.79-.34-.12-.9-.45-1.24-.57l.22,1.25c.04,.26,.08,.54,.11,.83,.4,3.05,.8,7.26,4.41,7.98,3.01,.55,4.77-2,5.7-4.61,.22-.62,.39-1.24,.52-1.83-1.02,0-1.81-.23-2.83-.45Z" style="fill: #010101; fill-rule: evenodd;"/>
        <path d="M76.38,152.99c-.33,.29-.65,.59-.96,.89-1.47,1.42-2.81,2.96-3.87,4.67-.21,.32-.41,.65-.59,.99l2.15,2.03c.17-.37,.36-.73,.57-1.09,1.13-1.97,2.71-3.82,4.66-5.51,.42-.37,.86-.73,1.32-1.08l-3.28-.9Zm62.29,5.63h0c-1.05-1.69-2.35-3.21-3.79-4.6-.36-.35-.73-.7-1.1-1.03l-3.28,.9c.48,.37,.94,.74,1.38,1.14,1.94,1.68,3.51,3.53,4.64,5.5,.19,.35,.37,.69,.54,1.04l2.14-2.03c-.17-.31-.35-.62-.53-.92Z" style="fill: #010101; fill-rule: evenodd;"/>
      </g>
      <path d="M127.84,211.05v-7.4c-3.69-5.15-8.64-9.18-14.96-11.23-2.49-.79-5.09-1.24-7.8-1.24s-5.2,.45-7.79,1.24c-6.66,2.19-11.92,6.65-15.64,12.3h-2.78v6.33h48.97Z" style="fill: #fef599; fill-rule: evenodd;"/>
      <path d="M209.6,207.88c0,.91-.37,1.7-.95,2.26-.58,.57-1.37,.91-2.22,.91H3.85c-1.7,0-3.17-1.36-3.17-3.17,0-.85,.37-1.63,.95-2.21,.58-.58,1.37-.95,2.22-.95H206.43c1.7,0,3.17,1.47,3.17,3.16Z" style="fill: #010101; fill-rule: evenodd;"/>
      <path d="M130.05,207.11c-.76-.14-1.48-.28-2.21-.39-.46-.07-.92-.13-1.4-.18-.41-.63-.85-1.23-1.3-1.82-5.05-6.62-12.17-10.72-20.06-10.72s-14.92,4.1-19.95,10.72c-.44,.59-.88,1.19-1.29,1.82-1.24,.12-2.49,.34-3.62,.57,.45-.82,.93-1.61,1.43-2.39,3.72-5.65,8.98-10.11,15.64-12.3,2.59-.79,5.19-1.24,7.79-1.24s5.31,.45,7.8,1.24c6.32,2.05,11.27,6.08,14.96,11.23,.25,.35,.5,.71,.74,1.07,.52,.78,1.01,1.57,1.47,2.39Z" style="fill: #010101; fill-rule: evenodd;"/>
      <g>
        <path d="M140.9,134.46c-1.81,5.76-10.51,8.13-15.82,6.44-6.55-2.26-6.33-15.26-5.76-20.57,.65-6.25,3.24-17.74,10.84-18.78,.13-.02,.27-.04,.41-.05,.24-.03,.48-.04,.73-.04,.23,0,.45,0,.67,.04,.05,0,.1,0,.14,.01,4.9,.44,8.47,3.85,8.9,6.96-.94-1.4-2.03-2.41-3.17-3.12,3.03,4.48,3.96,11.75,3.96,15.77s.34,9.49-.9,13.34Z" style="fill: #fff; fill-rule: evenodd;"/>
        <path d="M126.31,107.29c-.21-.07-.43-.13-.66-.18-1.02-.22-.34-.11-1.36-.11h-.45c.34,.79,.45,1.7,.34,2.6-6.44,9.15-2.83,26.89,1.35,29.38-5.31,2.48,5.65,.22,6.56-.68,.02-.05,.04-.09,.05-.14,1.32-3.35,1.98-7.14,2.21-10.71,.32-6.35-1.26-17.9-8.04-20.16Zm1.48,2.42c1.36,0,2.49,2.49,2.49,5.54s-1.13,5.65-2.49,5.65-2.48-2.6-2.48-5.65,1.13-5.54,2.48-5.54Z" style="fill: #026459; fill-rule: evenodd;"/>
        <path d="M141.8,121.12c0-4.02-.93-11.29-3.96-15.77-1.42-2.09-3.29-3.58-5.73-3.84-.04-.01-.09-.01-.14-.01-.22-.03-.44-.04-.67-.04-.25,0-.49,0-.73,.04-.14,.01-.28,.03-.41,.05-7.6,1.04-10.19,12.53-10.84,18.78-.57,5.31-.79,18.31,5.76,20.57,5.31,1.69,14.01-.68,15.82-6.44,1.24-3.85,.9-9.27,.9-13.34Zm-3.61,12.55c-.8,2.45-3.35,3.87-6.05,4.49-2.28,.53-4.66,.49-6.16,.03-5.58-1.83-5.45-22.95,.33-30.9,1.35-1.86,3.02-3,4.99-3,4.29,0,7.68,7.57,7.68,16.83,0,4.86,.22,9.38-.79,12.55Z" style="fill: #010101; fill-rule: evenodd;"/>
        <path d="M124.17,98.98c1.13-3.5,7.46-4.63,10.17-2.03,.23-2.15-2.6-4.07-5.08-3.84-3.16,.45-6.33,2.94-5.08,5.88h0Z" style="fill: #010101; fill-rule: evenodd;"/>
        <path d="M141.01,108.47c-.94-1.4-2.03-2.41-3.17-3.12-4.46-2.77-9.69-.94-10.05-.04-.41,.93-1.5-3.1,2.37-3.76,.13-.02,.27-.04,.41-.05,.24-.03,.48-.04,.73-.04,.23,0,.45,0,.67,.04,.05,0,.1,0,.14,.01,4.9,.44,8.47,3.85,8.9,6.96Z" style="fill: #010101; fill-rule: evenodd;"/>
      </g>
      <g>
        <path d="M69.36,134.46c1.81,5.76,10.51,8.13,15.82,6.44,6.55-2.26,6.33-15.26,5.76-20.57-.65-6.25-3.24-17.74-10.84-18.78-.13-.02-.27-.04-.41-.05-.24-.03-.48-.04-.73-.04-.23,0-.45,.01-.67,.04-.05,0-.1,0-.14,0-4.9,.44-8.47,3.85-8.9,6.96,.94-1.4,2.03-2.41,3.17-3.12-3.03,4.48-3.96,11.75-3.96,15.77s-.34,9.49,.9,13.34Z" style="fill: #fff; fill-rule: evenodd;"/>
        <path d="M75.91,127.45c.23,3.57,.89,7.36,2.21,10.71,0,.05,.03,.09,.05,.14,.91,.9,11.87,3.16,6.56,.68,4.18-2.49,7.79-20.23,1.35-29.38-.11-.9,0-1.81,.34-2.6h-.45c-1.02,0-.34-.11-1.36,.11-.23,.05-.45,.11-.66,.18-6.78,2.26-8.36,13.81-8.04,20.16Zm9.04-12.2c0,3.05-1.13,5.65-2.48,5.65s-2.49-2.6-2.49-5.65,1.13-5.54,2.49-5.54,2.48,2.49,2.48,5.54Z" style="fill: #026459; fill-rule: evenodd;"/>
        <path d="M69.36,134.46c1.81,5.76,10.51,8.13,15.82,6.44,6.55-2.26,6.33-15.26,5.76-20.57-.65-6.25-3.24-17.74-10.84-18.78-.13-.02-.27-.04-.41-.05-.24-.03-.48-.04-.73-.04-.23,0-.45,.01-.67,.04-.05,0-.1,0-.14,0-2.44,.26-4.31,1.75-5.73,3.84-3.03,4.48-3.96,11.75-3.96,15.77s-.34,9.49,.9,13.34Zm1.92-13.34c0-9.26,3.39-16.83,7.68-16.83,1.97,0,3.64,1.14,4.99,3,5.78,7.95,5.91,29.07,.33,30.9-1.5,.46-3.88,.5-6.16-.03-2.7-.62-5.25-2.04-6.05-4.49-1.01-3.17-.79-7.69-.79-12.55Z" style="fill: #010101; fill-rule: evenodd;"/>
        <path d="M86.09,98.98c-1.13-3.5-7.46-4.63-10.17-2.03-.23-2.15,2.6-4.07,5.08-3.84,3.16,.45,6.33,2.94,5.08,5.88h0Z" style="fill: #010101; fill-rule: evenodd;"/>
        <path d="M69.25,108.47c.94-1.4,2.03-2.41,3.17-3.12,4.46-2.77,9.69-.94,10.05-.04,.41,.93,1.5-3.1-2.37-3.76-.13-.02-.27-.04-.41-.05-.24-.03-.48-.04-.73-.04-.23,0-.45,.01-.67,.04-.05,0-.1,0-.14,0-4.9,.44-8.47,3.85-8.9,6.96Z" style="fill: #010101; fill-rule: evenodd;"/>
      </g>
    </g>
  </g>
</svg>