<?xml version="1.0" encoding="UTF-8"?>
<svg id="Camada_2" data-name="Camada 2" xmlns="http://www.w3.org/2000/svg" viewBox="0 0 377.24 429.01">
  <g id="Layer_1" data-name="Layer 1">
    <g>
      <g>
        <ellipse cx="171.05" cy="148.78" rx="147.4" ry="143.45" style="fill: #c33;"/>
        <path d="M319.44,293.6H22.56c-.2,.5-.3,1.04-.3,1.61,0,.21,.01,.43,.04,.64,.01,.17,.06,.34,.1,.51h0c8.89,74.5,72.05,132.15,148.6,132.15s139.71-57.65,148.6-132.13h0c.04-.19,.09-.36,.1-.53,.03-.21,.04-.43,.04-.64,0-.57-.1-1.11-.3-1.61Zm-11.61,17.75h-97.24c-9.65,11.45-23.98,18.24-38.95,18.24h-1.28c-15.13,0-29.31-6.78-38.95-18.24H34.17c-.93-3.74-1.7-7.66-2.29-11.61h97.24c7.79,15.28,23.58,25.81,41.89,25.81s34.09-10.53,41.89-25.81h97.24c-.6,3.96-1.37,7.87-2.29,11.61Z" style="fill: #fff; fill-rule: evenodd;"/>
        <path d="M22.3,295.85c.01,.17,.06,.34,.1,.51h0c8.89,74.5,72.05,132.15,148.6,132.15s139.71-57.65,148.6-132.13h0c.04-.19,.09-.36,.1-.53H22.3Zm180.09,3.89c-6.85,10.13-18.38,16.78-31.39,16.78s-24.68-6.66-31.46-16.78h62.84Zm-31.39,119.58c-64.87,0-119.61-43.89-135.86-103.92h94.49c10.3,11.61,25.12,18.23,40.73,18.23h1.28c15.62,0,30.26-6.61,40.73-18.23h94.33c-16.26,60.03-70.84,103.92-135.71,103.92Z" style="fill: #58595b; fill-rule: evenodd;"/>
        <path d="M310.72,295.21c-.03,.21-.06,.43-.09,.64-.14,1.3-.33,2.59-.51,3.89-.6,3.96-1.37,7.87-2.29,11.61h-97.24c-9.65,11.45-23.98,18.24-38.95,18.24h-1.28c-15.13,0-29.31-6.78-38.95-18.24H34.17c-.93-3.74-1.7-7.66-2.29-11.61-.19-1.3-.37-2.59-.51-3.89-.03-.21-.06-.43-.09-.64h-9.02c.03,.21,.04,.43,.09,.64,.01,.17,.03,.34,.06,.51h0c8.89,74.5,72.05,132.15,148.6,132.15s139.71-57.65,148.6-132.13h0c.03-.19,.04-.36,.06-.53,.04-.21,.06-.43,.09-.64h-9.02Zm-139.72,124.11c-64.87,0-119.61-43.89-135.86-103.92h94.49c10.3,11.61,25.12,18.23,40.73,18.23h1.28c15.62,0,30.26-6.61,40.73-18.23h94.33c-16.26,60.03-70.84,103.92-135.71,103.92Z" style="fill: #010101; fill-rule: evenodd; stroke: #231f20; stroke-miterlimit: 10;"/>
        <path d="M216.39,290.7c-.27,.97-.57,1.94-.9,2.9-.26,.76-.54,1.51-.84,2.26-.53,1.33-1.11,2.63-1.77,3.89-7.79,15.28-23.58,25.81-41.89,25.81s-34.09-10.53-41.89-25.81c-.66-1.26-1.24-2.56-1.77-3.89-.3-.74-.58-1.5-.84-2.26-.33-.96-.63-1.93-.9-2.9h9.49c.33,.99,.7,1.96,1.1,2.9,.33,.77,.68,1.53,1.07,2.26,.68,1.34,1.44,2.64,2.28,3.89,6.78,10.13,18.32,16.78,31.46,16.78s24.53-6.66,31.39-16.78c.84-1.24,1.61-2.54,2.31-3.89,.38-.73,.74-1.49,1.07-2.26,.43-.94,.8-1.91,1.14-2.9h9.49Z" style="fill: #010101; fill-rule: evenodd;"/>
        <path d="M171.45,0c53.22,0,99.99,27.8,126.66,69.6-3.28-.68-6.55,.68-8.59,3.28-25.2-38.42-68.7-63.84-118.07-63.84-36.61,0-69.94,14.01-95.02,36.83-1.69-2.15-4.29-3.5-7.23-3.5h-2.26C94.05,16.16,130.89,0,171.45,0h0Zm141.35,201.12c-4.07,11.3-9.49,21.81-15.93,31.64-.11-3.62-2.26-6.78-5.54-8.14,4.63-7.57,8.7-15.48,11.86-23.84,2.82,1.92,6.55,2.03,9.6,.34h0Zm-225.41,73.44c-39.88-27-66.1-72.65-66.1-124.4,0-23.95,5.65-46.66,15.71-66.78,1.36,2.94,4.18,5.08,7.46,5.31-9.04,18.64-14.12,39.43-14.12,61.47,0,47.45,23.39,89.37,59.32,114.91-2.6,2.49-3.39,6.21-2.26,9.49h0Z" style="fill: #010101; fill-rule: evenodd;"/>
        <path d="M171.45,40c34.91,0,66.1,16.27,86.21,41.58-1.24,.45-2.37,1.24-3.39,2.15-19.43-24.18-49.26-39.66-82.82-39.66-25.08,0-48.02,8.59-66.21,23.16-1.24-1.02-2.71-1.58-4.18-1.81,19.09-15.93,43.61-25.42,70.39-25.42h0ZM75.64,204.51c-9.15-16.04-14.35-34.57-14.35-54.35,0-11.98,1.92-23.61,5.54-34.46,1.02,.79,2.37,1.36,3.73,1.58-3.39,10.39-5.2,21.47-5.2,32.88,0,18.98,4.97,36.83,13.67,52.2-1.36,.45-2.49,1.24-3.39,2.15h0Z" style="fill: #010101; fill-rule: evenodd;"/>
      </g>
      <g>
        <path d="M364.67,170.59v11.4c-3.51,7.65-6.24,8.84-15.6,11.56l-61.46,18.42,28.02,31.75c3.39,3.84,5.87,8.47,4.63,13.78-1.36,5.31-5.76,8.14-10.51,10.28l-32.54,14.8,5.2,6.08H77.54c.42-.78,.82-1.57,1.21-2.37,1.65-3.34,3.09-6.83,4.19-10.39,.08-.27,.16-.53,.24-.8,.13-.43,.25-.85,.36-1.28,.14-.52,.28-1.04,.4-1.56,.04-.14,.07-.27,.09-.4,.12-.49,.23-.99,.32-1.48,.01,0,.01-.02,.01-.03,.09-.46,.18-.92,.25-1.38,.04-.18,.07-.37,.09-.54,.08-.51,.16-1.01,.22-1.52,.07-.57,.13-1.15,.18-1.73,.04-.51,.08-1.02,.1-1.54,0-.1,.02-.2,0-.29,.03-.54,.04-1.09,.04-1.63,0-.36,0-.71-.01-1.06-.16-4.69-1.15-7.88-2.37-11.28-4.32-5.73-7.77-12.18-10.17-18.77-5.19-14.24,.91-31.86,3.39-46.33,.79-4.75,.86-9.12,.71-13.69H364.67Z" style="fill: #e41e26; fill-rule: evenodd;"/>
        <path d="M366.21,89.96c.63-.64,1.24-1.28,1.84-1.94,3.73-4.07,8.14-9.6,6.67-15.59-2.83-11.41-25.08-11.98-34.01-11.98-18.76-.11-38.42,3.73-56.49,8.7-20.57,5.54-39.89,14.24-57.29,26.55-1.66,1.14-3.26,2.28-4.81,3.46-25.57-11.23-66.62-12.08-94.52-2.61-11.02-16.94-24.88-31.55-40.89-44.01-14.68-11.52-31.41-22.6-48.69-29.83-8.25-3.5-29.04-11.64-36.05-2.14-6.55,8.92,4.97,28.47,9.72,36.04,15.22,24.37,41.37,57.97,71.75,75-5.13,9.34-7.62,20.19-6.9,33.01,.1,2.06,.2,4.03,.26,5.97,.15,4.57,.08,8.94-.71,13.69-2.48,14.47-8.58,32.09-3.39,46.33,2.4,6.59,5.85,13.04,10.17,18.77,1.22,3.4,2.21,6.59,2.37,11.28,.01,.35,.01,.7,.01,1.06,0,.54-.01,1.09-.04,1.63,.01,.09,0,.19,0,.29-.02,.52-.06,1.03-.1,1.54-.05,.58-.11,1.16-.18,1.73-.06,.51-.14,1.01-.22,1.52-.02,.17-.05,.36-.09,.54-.07,.46-.16,.92-.25,1.38,0,.01,0,.02-.01,.03-.09,.49-.2,.99-.32,1.48-.02,.13-.05,.26-.09,.4-.12,.52-.26,1.04-.4,1.56-.11,.43-.23,.85-.36,1.28-.07,.27-.16,.53-.24,.8-1.1,3.56-2.54,7.05-4.19,10.39-.39,.8-.79,1.59-1.21,2.37-.48,.88-.96,1.76-1.46,2.62H26.83c-1.24,0-2.38,.51-3.19,1.33-.82,.82-1.33,1.95-1.33,3.19,0,2.49,2.03,4.52,4.52,4.52H316.19c1.24,0,2.38-.51,3.19-1.33,.82-.81,1.33-1.95,1.33-3.19,0-2.48-2.03-4.52-4.52-4.52h-31.54l-2.24-2.62-5.2-6.08,32.54-14.8c4.75-2.14,9.15-4.97,10.51-10.28,1.24-5.31-1.24-9.94-4.63-13.78l-28.02-31.75,61.46-18.42c9.36-2.72,12.09-3.91,15.6-11.56,.44-.94,.88-1.98,1.35-3.13,7.8-18.75,10.17-50.17,11.19-70.73,.42-10.07-3.4-16.65-11-18.17Zm-123.94,163.76c-8.55-2.65-15.23-10.19-15.23-19.95,0-11.52,9.83-21.01,21.92-21.01,5.43,0,10.41,1.97,14.27,5.14,0,3.44-.42,6.68-1.5,9.66-3.79,10.44-10.61,19.17-19.46,26.16Zm-23.7-66.16c-3.16,0-5.65-2.48-5.65-5.54s2.49-5.64,5.65-5.64,5.65,2.48,5.65,5.64-2.6,5.54-5.65,5.54Zm-97.17-5.54c0,3.06-2.48,5.54-5.65,5.54s-5.65-2.48-5.65-5.54,2.6-5.64,5.65-5.64,5.65,2.48,5.65,5.64Zm-27.34,30.74c12.09,0,21.8,9.49,21.8,21.01,0,9.37-6.29,17.27-15.05,20-8.88-7-15.72-15.74-19.52-26.21-1.1-2.98-1.55-6.22-1.57-9.67,3.82-3.2,8.82-5.13,14.34-5.13Z" style="fill: #f7ec13; fill-rule: evenodd;"/>
        <path d="M228.51,102.37c-2-1.15-4.13-2.22-6.39-3.21-25.57-11.23-66.62-12.08-94.52-2.61-2.94,.99-5.73,2.1-8.35,3.33-.03,.09-.06,.18-.08,.27-.93,2.97-.89,6.17,.54,9.68,25.64-14.24,77.84-14.24,103.49,0,2.27-1.88,4.73-3.76,6.89-5.34,.29-.22,.59-.43,.9-.65-.9-.45-1.57-.91-2.48-1.47Zm38.42,81.91c-.87-4.75-.96-9.12-.82-13.69,.05-1.94,.15-3.91,.25-5.97,.47-8.27-.41-15.68-2.45-22.42-.9-2.97-2.03-5.81-3.36-8.53-.02-.04-.04-.08-.06-.12-11.3-22.59-22.71-16.04-23.5-14.57,13.78,11.18,21.47,25.08,20.34,45.19-.11,2.07-.24,4.2-.3,6.42-.13,4.55-.02,9.51,.97,15.28,1.58,9.3,4.14,18.56,4.96,26.94,.18,1.74,.27,3.44,.27,5.09,0,3.44-.42,6.68-1.5,9.66-3.79,10.44-10.61,19.17-19.46,26.16-1.26,1-2.56,1.96-3.9,2.88-7.79,5.4-16.87,9.62-26.69,12.65,13.92,3.77,26.67-.2,36.97-8.19,1.01-.78,1.99-1.6,2.95-2.46,.23-.2,.46-.4,.68-.61,1.28-1.18,2.52-2.43,3.71-3.73,1.45-1.58,2.81-3.23,4.11-4.96t.01,0c.04-.05,.08-.11,.13-.17,4.22-5.66,7.61-12.01,9.97-18.51,5.19-14.24-.8-31.86-3.28-46.33Zm-162.34,72.29c-1.3-.89-2.56-1.82-3.78-2.8-8.88-7-15.72-15.74-19.52-26.21-1.1-2.98-1.55-6.22-1.57-9.67-.01-1.65,.09-3.35,.26-5.09,.81-8.37,3.39-17.63,5.04-26.93,.99-5.77,1.05-10.73,.89-15.28-.08-2.22-.22-4.35-.33-6.42-1.01-17.74,4.86-30.62,15.82-41.12-2.97-.42-7.72-.83-12.37,1.3-.47,.22-.94,.46-1.41,.73-1.54,2.09-2.94,4.27-4.18,6.53-5.13,9.34-7.62,20.19-6.9,33.01,.1,2.06,.2,4.03,.26,5.97,.15,4.57,.08,8.94-.71,13.69-2.48,14.47-8.58,32.09-3.39,46.33,2.4,6.59,5.85,13.04,10.17,18.77,1.43,1.9,2.96,3.72,4.57,5.44,1.26,1.35,2.57,2.63,3.93,3.83,.95,.86,1.94,1.67,2.94,2.45,10.29,7.97,23.03,11.92,36.92,8.15-9.79-3.04-18.87-7.26-26.64-12.68Z" style="fill: #010101; fill-rule: evenodd;"/>
        <path d="M130.89,101.8c-1.92,.23-3.84,.57-5.87,1.25-1.13,.34-2.15,.79-3.17,1.24-.85-1.35-1.74-2.73-2.68-4.14-8.02-11.99-19.79-26.24-37.99-40.49-15.54-12.1-29.02-20.29-39.98-25.57-2.35-1.14-4.58-2.14-6.69-3.02-15.14-6.32-24.06-6.66-25.31-5.08-1.24,1.69,1.59,12.2,10.17,25.76,5.72,9.13,13.17,19.82,21.89,30.4,13.5,16.4,30.02,32.54,47.77,42.2,1.81,.99,3.64,1.91,5.48,2.76-2.03,2.6-3.84,5.09-5.42,7.46-1.9-.92-3.78-1.9-5.65-2.96C53.06,114.58,26.91,80.98,11.69,56.61,6.94,49.04-4.58,29.49,1.97,20.57c7.01-9.5,27.8-1.36,36.05,2.14,17.28,7.23,34.01,18.31,48.69,29.83,16.01,12.46,29.87,27.07,40.89,44.01,.59,.87,1.15,1.76,1.71,2.65,.57,.91,1.02,1.81,1.58,2.6Z" style="fill: #010101; fill-rule: evenodd;"/>
        <path d="M368.05,88.02c-.6,.66-1.21,1.3-1.84,1.94-3.63,3.69-7.73,7.07-11.86,10.16-.81,.61-1.63,1.21-2.45,1.8-21.9,15.44-55.59,34.49-87.99,40.28-1.03,.18-2.06,.35-3.08,.51-.68-2.83-1.81-5.77-3.28-8.59,1-.14,2-.29,3-.45,17.86-2.95,36.46-10.43,53.05-19.07,7.76-4.04,15.08-8.34,21.68-12.54,4.07-2.6,7.86-5.16,11.31-7.6,1.29-.9,2.51-1.79,3.67-2.68,10.78-8.18,16.16-15.26,15.65-17.09-.46-2.04-8.82-5.2-25.2-5.2-2.22,0-4.57,.06-7.06,.19-12.23,.62-27.81,2.91-47.06,8.17-25.56,6.95-43.33,17.2-55.6,25.99-.31,.22-.61,.43-.9,.65-1.18,.85-2.31,1.69-3.38,2.51-3.06-1.58-6.11-3.05-9.04-4.29,1.45-1.23,2.93-2.41,4.45-3.55,1.55-1.18,3.15-2.32,4.81-3.46,17.4-12.31,36.72-21.01,57.29-26.55,18.07-4.97,37.73-8.81,56.49-8.7,8.93,0,31.18,.57,34.01,11.98,1.47,5.99-2.94,11.52-6.67,15.59Z" style="fill: #010101; fill-rule: evenodd;"/>
        <path d="M87.64,288.66c-.41,.86-.84,1.73-1.29,2.62-.75,1.47-1.57,2.98-2.46,4.52l-10.73,.23c1-1.53,1.98-3.11,2.92-4.75,.5-.86,.98-1.74,1.46-2.62,.42-.78,.82-1.57,1.21-2.37,1.65-3.34,3.09-6.83,4.19-10.39,.08-.27,.16-.53,.24-.8,.13-.43,.25-.85,.36-1.28,.14-.52,.28-1.04,.4-1.56,.04-.14,.07-.27,.09-.4,.12-.49,.23-.99,.32-1.48,.01,0,.01-.02,.01-.03,.09-.46,.18-.92,.25-1.38,.04-.18,.07-.37,.09-.54,.08-.51,.16-1.02,.22-1.52,.07-.58,.13-1.16,.18-1.73,.04-.52,.08-1.03,.1-1.54,0-.1,.02-.2,0-.29,.03-.54,.04-1.09,.04-1.63,0-.36,0-.71-.01-1.06-.16-4.69-1.15-7.88-2.37-11.28-.5-1.43-1.05-2.89-1.58-4.53,3.73,2.03,7.91,4.29,11.86,7,.23,.9,.43,1.88,.61,2.93,.2,1.23,.36,2.56,.45,3.99,.06,.75,.09,1.52,.1,2.33,.12,7.17-1.42,16.44-6.67,27.56Z" style="fill: #010101; fill-rule: evenodd;"/>
        <path d="M261.73,244.84c-3.84,2.03-8.02,4.29-11.98,7.01-2.03,8.59-2.49,23.61,9.26,43.95l10.73,.23c-6.67-10.17-12.43-22.94-12.09-35.37,.23-6.67,2.15-10.28,4.07-15.82h0Z" style="fill: #010101; fill-rule: evenodd;"/>
        <path d="M172.02,223.49c-4.97,0-10.06,6.55-17.97,6.55-4.29,0-9.26-1.47-12.88-4.41-4.97-4.18-3.62-10.28,0-11.98-3.16,7.57,6.44,12.43,12.88,12.43,7.34,0,11.64-6.44,17.97-6.55,6.21,.11,10.51,6.55,17.85,6.55,6.44,0,16.04-4.86,12.88-12.43,3.62,1.69,5.08,7.8,0,11.98-3.5,2.94-8.47,4.41-12.88,4.41-7.57,0-12.2-6.33-17.85-6.55h0Z" style="fill: #010101; fill-rule: evenodd;"/>
        <path d="M171.45,201.23c2.26,0,4.07-.11,4.07,.9s-1.81,1.81-4.07,1.81-3.95-.79-3.95-1.81,1.81-.9,3.95-.9h0Z" style="fill: #010101; fill-rule: evenodd;"/>
        <path d="M42.08,29.38s-8.81,40.34,2.82,62.6c0,0-39.32-39.66-40-62.6-.56-22.94,37.17,0,37.17,0h0Z" style="fill: #010101; fill-rule: evenodd;"/>
        <path d="M334.15,65.42s-2.03,33.9-29.15,58.08c0,0,53.78-24.07,62.26-45.42,8.47-21.35-33.11-12.65-33.11-12.65h0Z" style="fill: #010101; fill-rule: evenodd;"/>
        <path d="M366.21,89.96c-2.21-.44-4.76-.45-7.61,.01-.53,.09-1.07,.19-1.62,.31-2.25,.48-4.49,.97-6.72,1.5-5.17,1.2-10.3,2.54-15.43,4.04,.88,1.96,1.03,4.17,.45,6.24-.39,1.37-1.1,2.68-2.14,3.81,2.81-.86,5.59-1.68,8.35-2.45h.01c4.34-1.22,8.62-2.32,12.85-3.3,1.53-.36,3.04-.7,4.55-1.03,7.23-1.47,9.61,.45,9.27,8.59-.72,15.51-2.87,44.73-8.77,62.91-.54,1.69-1.13,3.29-1.74,4.77-3.28,7.91-3.5,7.34-11.19,9.6l-70.39,21.02c-3.73,1.13-4.07,2.03-1.24,5.31l34.01,38.41c4.52,5.2,3.16,7.12-2.83,9.83l-39.09,17.86c-5.2,2.37-4.86,1.35-1.13,5.76l4.68,5.51,2.23,2.62,3.94,4.64c1.8-.46,3.84-.23,5.76-.23,.45-.23,.9-.23,1.35-.34,1.36-.34,2.83-.45,4.18-.22l-3.29-3.85-2.24-2.62-5.2-6.08,32.54-14.8c4.75-2.14,9.15-4.97,10.51-10.28,1.24-5.31-1.24-9.94-4.63-13.78l-28.02-31.75,61.46-18.42c9.36-2.72,12.09-3.91,15.6-11.56,.44-.94,.88-1.98,1.35-3.13,7.8-18.75,10.17-50.17,11.19-70.73,.42-10.07-3.4-16.65-11-18.17Z" style="fill: #010101; fill-rule: evenodd;"/>
        <path d="M262.96,212.81c-4.09-2.55-8.92-4.01-14-4.01-14.01,0-25.98,10.85-25.98,24.97,0,10.53,6.53,19.04,15.39,22.83,3.22,1.39,6.75,2.15,10.38,2.16,.95,0,1.9-.05,2.85-.16,.25-.02,.5-.05,.75-.08-.03-.17-.05-.35-.07-.53-.09-1.2,.13-2.46,.53-3.54-1.21,.2-2.43,.3-3.63,.31-2.37,.01-4.7-.35-6.91-1.04-8.55-2.65-15.23-10.19-15.23-19.95,0-11.52,9.83-21.01,21.92-21.01,5.43,0,10.41,1.97,14.27,5.14,1.29,1.06,2.46,2.26,3.47,3.56,.68-1.13,1.7-2.04,2.94-2.71-1.87-2.34-4.13-4.35-6.68-5.94Zm-168.9-4.01c-5.15,0-9.99,1.45-14.08,4-2.47,1.54-4.66,3.46-6.49,5.72,.8,1.13,1.59,3.05,1.81,4.41,1.2-1.9,2.69-3.6,4.42-5.04,3.82-3.2,8.82-5.13,14.34-5.13,12.09,0,21.8,9.49,21.8,21.01,0,9.37-6.29,17.27-15.05,20-2.12,.66-4.39,1.02-6.75,1.02-.1,0-.2,0-.3-.01-2.25-.02-4.31-.36-6.37-1.01,.03,.34,.04,.69,.05,1.05,.01,1.04-.05,2.12-.05,3.13,1.32,.34,2.65,.57,3.98,.7,.95,.1,1.89,.14,2.84,.12,3.62-.02,7.15-.8,10.38-2.2,8.79-3.79,15.34-12.19,15.34-22.8,0-14.12-11.97-24.97-25.87-24.97Z" style="fill: #010101; fill-rule: evenodd;"/>
      </g>
      <path d="M320.71,295.8c0,1.24-.51,2.38-1.33,3.19-.81,.82-1.95,1.33-3.19,1.33H26.83c-2.49,0-4.52-2.03-4.52-4.52,0-1.24,.51-2.37,1.33-3.19,.81-.82,1.95-1.33,3.19-1.33H316.19c2.49,0,4.52,2.04,4.52,4.52Z" style="fill: #010101; fill-rule: evenodd;"/>
      <g>
        <path d="M119.82,173.21c-8.14,0-14.8,6.67-14.8,14.8s6.66,14.8,14.8,14.8,14.8-6.55,14.8-14.8-6.55-14.8-14.8-14.8Zm-4.07,14.35c-3.05,0-5.65-2.48-5.65-5.54s2.6-5.64,5.65-5.64,5.65,2.48,5.65,5.64-2.48,5.54-5.65,5.54Z" style="fill: #010101; fill-rule: evenodd;"/>
        <path d="M121.33,181.97c0,3.09-2.5,5.59-5.59,5.59s-5.59-2.5-5.59-5.59,2.5-5.59,5.59-5.59,5.59,2.5,5.59,5.59Z" style="fill: #fff; fill-rule: evenodd;"/>
      </g>
      <g>
        <path d="M223.09,173.21c-8.14,0-14.8,6.67-14.8,14.8s6.66,14.8,14.8,14.8,14.8-6.55,14.8-14.8-6.55-14.8-14.8-14.8Zm-4.52,14.35c-3.16,0-5.65-2.48-5.65-5.54s2.49-5.64,5.65-5.64,5.65,2.48,5.65,5.64-2.6,5.54-5.65,5.54Z" style="fill: #010101; fill-rule: evenodd;"/>
        <path d="M224.15,181.97c0,3.09-2.5,5.59-5.59,5.59s-5.59-2.5-5.59-5.59,2.5-5.59,5.59-5.59,5.59,2.5,5.59,5.59Z" style="fill: #fff; fill-rule: evenodd;"/>
      </g>
    </g>
  </g>
</svg>