<?xml version="1.0" encoding="UTF-8"?>
<svg xmlns="http://www.w3.org/2000/svg" viewBox="0 0 138.46 251.03">
  <g style="isolation: isolate;">
    <g id="Camada_2" data-name="Camada 2">
      <g id="Layer_1" data-name="Layer 1">
        <g>
          <path d="M134.04,194.04l.14,12.22c-47.42-2.68-85.3-41.7-85.84-89.9,0-.09,0-.19,0-.28,0-.09,0-.19,0-.28-.18-15.93,3.74-30.95,10.78-44.05,.01,.18,.03,.35,.05,.53,14.27-26.53,41.29-45.22,72.97-47.72l.14,12.22c2.04-.18,4.1-.31,6.19-.34V0H0V251.03H138.46v-56.83c-1.48-.02-2.96-.07-4.42-.17Z" style="fill: none;"/>
          <path d="M132.84,87.15c-12.94,3-22.52,14.67-22.37,28.51,.16,13.83,10,25.29,23,28l.57,50.38c1.46,.1,2.94,.16,4.42,.17v-55.99c-12.1-.49-21.82-10.38-21.96-22.63-.14-12.42,9.63-22.63,21.96-23.14V36.43c-2.09,.02-4.15,.15-6.19,.34l.57,50.38Z" style="fill: #333;"/>
          <path d="M110.47,115.66c-.16-13.83,9.42-25.51,22.37-28.51l-.57-50.38-.14-12.22c-31.68,2.51-58.71,21.2-72.97,47.72,7.79,98.95,74.87,120.31,74.87,120.31l.15,13.11c-47.32-2.67-85.15-41.55-85.83-89.62,0,.09,0,.19,0,.28,.54,48.2,38.43,87.22,85.84,89.9l-.14-12.22-.57-50.38c-13.01-2.71-22.85-14.16-23-28Z" style="fill: #e6e6e6;"/>
          <path d="M116.5,115.59c.14,12.25,9.86,22.14,21.96,22.63v-7.56c-7.97-.48-14.34-7.04-14.43-15.15-.09-8.23,6.3-15,14.43-15.5v-7.56c-12.33,.5-22.1,10.72-21.96,23.14Z" style="fill: #fff;"/>
          <path d="M124.04,115.5c.09,8.11,6.45,14.67,14.43,15.15v-2.38c-6.67-.48-11.97-5.99-12.04-12.8-.08-6.9,5.25-12.59,12.04-13.08v-2.39c-8.12,.5-14.52,7.27-14.43,15.5Z" style="fill: #b3b3b3;"/>
          <path d="M126.42,115.48c.08,6.8,5.38,12.32,12.04,12.8v-25.88c-6.79,.49-12.12,6.18-12.04,13.08Z" style="fill: #fff;"/>
          <path d="M59.12,71.75c-7.04,13.11-10.96,28.12-10.78,44.05,0,.09,0,.19,0,.28-.13-15.84,3.81-30.76,10.82-43.8-.01-.18-.03-.35-.05-.53Z" style="mix-blend-mode: multiply; opacity: .07;"/>
          <path d="M134.18,205.69l-.15-13.11s-67.07-21.36-74.87-120.31c-7.01,13.04-10.95,27.96-10.82,43.8,.69,48.07,38.51,86.94,85.83,89.62Z" style="fill: #e6e6e6;"/>
          <path d="M134.18,205.69l-.15-13.11s-67.07-21.36-74.87-120.31c-7.01,13.04-10.95,27.96-10.82,43.8,.69,48.07,38.51,86.94,85.83,89.62Z" style="mix-blend-mode: multiply; opacity: .07;"/>
        </g>
      </g>
    </g>
  </g>
</svg>