<?xml version="1.0" encoding="UTF-8"?>
<svg id="Camada_2" data-name="Camada 2" xmlns="http://www.w3.org/2000/svg" viewBox="0 0 210.16 300.82">
  <g id="Layer_1" data-name="Layer 1">
    <g>
      <ellipse cx="105.53" cy="105.08" rx="99.8" ry="98.75" style="fill: #c33;"/>
      <g>
        <path d="M186.09,100.11c-.35,4.92-1.4,9.91-3.13,14.63H27.16c-1.72-4.72-2.74-9.71-3.09-14.63-1.92-27.46,15.7-47.91,39.77-58.65,2.29-1.02,4.63-2.11,6.95-3.27,4.08-3.24,8.18-6.45,11.58-10.17,2.03-2.37,3.84-4.86,4.97-7.8,1.58-3.61,3.5-7.57,8.14-7.68,1.46-.11,2.82,.23,3.84,.9,2.6-1.92,5.87-1.92,8.47,0,1.13-.67,2.37-1.01,3.84-.9,4.64,.11,6.56,4.07,8.14,7.68,1.24,2.94,2.94,5.43,5.08,7.8,1.74,1.94,3.67,3.74,5.7,5.47,5.01,2.98,10.55,5.64,15.77,7.97,23.95,10.74,41.69,31.19,39.77,58.65Z" style="fill: #67ae45; fill-rule: evenodd;"/>
        <g>
          <path d="M151.97,68.02c-7.46-23.17-30.28-26.78-38.08-45.31-1.58-3.84-2.37-4.75-3.61-3.05-3.05,3.95-5.88-1.24-6.67-1.36-.9,.12-3.73,5.31-6.78,1.36-1.24-1.7-2.03-.79-3.61,3.05-7.8,18.42-30.28,22.03-37.97,44.74-4.24-3.8-2.18-9.84,1.06-14.85,1.76-2.72,3.87-5.14,5.5-6.73,2.78-2.74,5.88-5.22,8.98-7.68,4.08-3.24,8.18-6.45,11.58-10.17,2.03-2.37,3.84-4.86,4.97-7.8,1.58-3.61,3.5-7.57,8.14-7.68,1.46-.11,2.82,.23,3.84,.9,2.6-1.92,5.87-1.92,8.47,0,1.13-.67,2.37-1.01,3.84-.9,4.64,.11,6.56,4.07,8.14,7.68,1.24,2.94,2.94,5.43,5.08,7.8,1.74,1.94,3.67,3.74,5.7,5.47,4.84,4.14,10.21,7.92,14.75,12.38,.97,.97,2.2,2.28,3.46,3.8,4.59,5.57,9.51,13.91,3.21,18.35Z" style="fill: #010101; fill-rule: evenodd;"/>
          <path d="M79.77,33.33c-5.08,5.99-10.39,11.86-13.33,13.9-3.7,1.65-7.07,3.45-10.13,5.37-27.47,17.23-29.87,44.26-22.35,62.14,1.56,3.7,3.54,7.02,5.81,9.77-.79,2.71-1.47,5.09-2.03,7.12-1.47-1.47-2.83-3.05-4.07-4.63-2.77-3.7-4.94-7.87-6.51-12.26-1.72-4.72-2.74-9.71-3.09-14.63-1.92-27.46,15.7-47.91,39.77-58.65,2.29-1.02,4.63-2.11,6.95-3.27,3.06-1.5,6.09-3.13,8.98-4.86Z" style="fill: #010101; fill-rule: evenodd;"/>
          <path d="M186.09,100.11c-.35,4.92-1.4,9.91-3.13,14.63-1.58,4.39-3.76,8.56-6.47,12.26-1.24,1.58-2.6,3.16-4.07,4.63-.56-2.03-1.24-4.41-2.03-7.12,2.25-2.75,4.22-6.06,5.77-9.77,7.92-18.93,4.85-48.11-27.4-65.07-1.61-.84-3.29-1.66-5.04-2.44-2.94-2.04-8.36-7.91-13.44-13.9,.09,.05,.18,.11,.27,.16,5.01,2.98,10.55,5.64,15.77,7.97,23.95,10.74,41.69,31.19,39.77,58.65Z" style="fill: #010101; fill-rule: evenodd;"/>
          <path d="M105.08,48.02h0c1.69,0,3.16,1.47,3.16,3.16v24.52c0,1.81-1.47,3.16-3.16,3.16h0c-1.81,0-3.16-1.36-3.16-3.16v-24.52c0-1.69,1.36-3.16,3.16-3.16h0Z" style="fill: #010101; fill-rule: evenodd;"/>
        </g>
      </g>
      <g>
        <path d="M209.27,205.86H.89c.16-.4,.4-.77,.7-1.08,.56-.58,1.35-.95,2.25-.95H24.74c-.26-1.32-.48-2.64-.67-3.96-1.73-12.92-.9-26.66,5.72-37.84-.2-1.5-.3-3.05-.3-4.64,0-13.35,2.3-25.12,6.26-35.22-2.47-6.64-2.96-16.43-2.87-21.95,0-7.32,.78-19.97,6.64-26.1h29.16c1.29,.4,2.47,.79,3.52,1.13,3.42,1.09,6.79,2.23,10.14,3.4,15.72-4.85,33.01-4.51,48.5,1,.73,.26,1.41,.54,2.05,.85v-3.69c1.58-.53,3.16-1.05,4.73-1.56,1.05-.34,2.23-.73,3.52-1.13h29.16c5.86,6.13,6.66,18.78,6.75,26.1,0,5.44-.5,15.04-2.81,21.67,4.04,10.17,6.32,22.03,6.32,35.5,0,1.56-.1,3.07-.29,4.55,6.7,11.23,7.55,25,5.71,37.93-.19,1.32-.38,2.64-.61,3.96h20.95c1.38,0,2.5,.87,2.95,2.03Z" style="fill: #7cbeae; fill-rule: evenodd;"/>
        <g>
          <path d="M135.99,82.41c-.9-.7-1.92-1.35-3.1-1.91-.64-.31-1.32-.59-2.05-.85-15.49-5.51-32.78-5.85-48.5-1-1.02,.31-2.02,.65-3.02,1-2.12,.75-3.85,1.72-5.25,2.84-3.3,2.64-4.84,6.11-5.71,9.37,21.92-13.79,51.41-13.79,73.44,0-.88-3.29-2.44-6.8-5.81-9.45Zm38.25,39.48c-1.2-3.05-2.57-5.94-4.08-8.68l-.27-.48c-4.4-7.68-10.62-8.42-12.5-7.2,10.29,12.54,16.84,29.83,16.84,51.86,0,53.44-138.3,53.44-138.3,0,0-22.03,6.55-39.32,16.84-51.86-1.9-1.22-8.2-.47-12.71,7.38-.06,.1-.11,.2-.17,.3-1.53,2.82-2.92,5.81-4.14,8.96-3.96,10.1-6.26,21.87-6.26,35.22,0,1.59,.1,3.14,.3,4.64,.42,3.34,1.31,6.47,2.61,9.41,5.23,11.89,17.11,20.52,31.99,25.88,2.4,.86,4.87,1.64,7.41,2.33,8.99,2.46,18.76,3.85,28.63,4.18,3.06,.11,6.13,.11,9.2,0,9.9-.33,19.69-1.73,28.69-4.2,2.55-.69,5.02-1.48,7.42-2.34,14.9-5.38,26.78-14.04,31.97-25.98,1.28-2.92,2.15-6.05,2.56-9.37,.19-1.48,.29-2.99,.29-4.55,0-13.47-2.28-25.33-6.32-35.5Z" style="fill: #000000; fill-rule: evenodd;"/>
          <path d="M85.87,79.88c-3.16,.9-6.21,2.03-9.15,3.5-.87-.3-1.76-.59-2.65-.89-11.01-3.67-23.17-7.2-28.08-5.32-6.84,2.55-7.86,22.84-5.93,35.74,.46,3.09,1.1,5.75,1.86,7.65-1.36,2.37-2.49,4.52-3.39,6.55-.23-.23-.45-.45-.56-.68-.88-1.15-1.61-2.61-2.22-4.26-2.47-6.64-2.96-16.43-2.87-21.95,0-7.32,.78-19.97,6.64-26.1,1.18-1.24,2.57-2.22,4.21-2.83,6.28-2.41,17.36,.47,24.95,2.83,1.29,.4,2.47,.79,3.52,1.13,3.42,1.09,6.79,2.23,10.14,3.4,1.18,.41,2.35,.82,3.53,1.23Z" style="fill: #000000; fill-rule: evenodd;"/>
          <path d="M139.77,195.13c-.48,1.49-.97,2.99-1.45,4.5-.44,1.4-.89,2.8-1.34,4.2-.21,.68-.43,1.36-.65,2.03-.1,.31-.19,.61-.29,.91l6.67,.11c.11-.34,.21-.68,.32-1.02,.21-.67,.42-1.34,.63-2.03,.67-2.12,1.36-4.31,2.08-6.54,.45-1.39,.9-2.8,1.37-4.2-1.69,2.15-4.74,3.05-7.34,2.04Zm-65.95,10.73c-.22-.67-.45-1.35-.67-2.03-.45-1.39-.9-2.78-1.35-4.18-.56-1.76-1.1-3.54-1.63-5.31-.23-.12-.46-.12-.57-.23-.68,0-1.24-.22-1.81-.45v.11l.57,.23c-1.02,0-1.81-.11-2.83-.45-.9-.23-1.69-.57-2.48-1.02h-.11c.47,1.61,.96,3.21,1.45,4.79,.69,2.22,1.39,4.39,2.08,6.51,.22,.69,.44,1.36,.66,2.03l.33,1.02,6.66-.11c-.1-.3-.2-.6-.3-.91Zm-40.04-37.74c-.67-.9-1.13-1.92-1.24-3.05-.11-.79-.34-1.69-.34-2.48v-4.18c-.88,1.17-1.68,2.38-2.41,3.62-6.62,11.18-7.45,24.92-5.72,37.84,.19,1.32,.41,2.64,.67,3.96,.13,.68,.27,1.36,.43,2.03,.08,.38,.16,.75,.25,1.13h6.44c-.09-.38-.18-.75-.26-1.13-.15-.67-.29-1.35-.43-2.03-2.08-10.53-2.41-22.36,1.23-32.39,.41-1.13,.87-2.24,1.38-3.32Zm146.49-6.18c-.67-1.13-1.4-2.23-2.2-3.31v5.43c0,1.47-.56,3.27-1.47,4.52,.41,.89,.78,1.8,1.11,2.73,3.71,10.1,3.39,21.99,1.19,32.52-.14,.69-.29,1.36-.45,2.03-.09,.38-.18,.76-.27,1.13h6.56c.09-.38,.17-.75,.25-1.13,.14-.67,.27-1.35,.38-2.03,.23-1.32,.42-2.64,.61-3.96,1.84-12.93,.99-26.7-5.71-37.93Z" style="fill: #000000; fill-rule: evenodd;"/>
          <path d="M177.05,100.22c0,5.62-.53,15.68-3.05,22.32-.57,1.5-1.24,2.83-2.03,3.89l-.68,.68c-.64-1.45-1.4-2.96-2.24-4.57-.34-.64-.68-1.3-1.04-1.98,3.96-9.83,4.3-40.23-4.06-43.39-5.31-2.03-19.21,2.26-30.85,6.21-.07-.04-.14-.07-.21-.11-2.76-1.42-5.74-2.51-8.94-3.39,2.95-1.03,5.95-2.07,8.94-3.07,1.58-.53,3.16-1.05,4.73-1.56,7.23-2.37,21.13-6.78,28.47-3.96,9.72,3.62,10.85,20.12,10.96,28.93Z" style="fill: #010101; fill-rule: evenodd;"/>
          <path d="M114.8,169.48c-.45,0-1.02,.56-1.47,1.13-.34,.68-.34,1.13,0,1.13,.45,0,1.02-.45,1.36-1.13,.45-.56,.45-1.13,.11-1.13h0Z" style="fill: #010101; fill-rule: evenodd;"/>
          <path d="M67.79,172.08c9.83,2.6,20.34,5.42,29.72,9.26,1.02,.45,7.01,3.28,7.23,3.39h.23c.45-.11,7.01-3.28,7.34-3.39,9.38-3.84,19.89-6.67,29.72-9.26,5.65-1.36,18.42-4.52,22.26-.9-4.29,.23-11.19,1.02-21.58,3.73-20.11,5.08-28.92,8.7-33.22,10.85-1.13,.56-2.26,1.13-3.39,1.69-.34,.23-.68,.34-.9,.34h-.45c-.34,0-.68-.23-1.02-.34-12.43-6.1-23.16-9.15-36.61-12.54-10.39-2.71-17.29-3.5-21.58-3.73,3.84-3.62,16.72-.45,22.26,.9h0Z" style="fill: #010101; fill-rule: evenodd;"/>
        </g>
        <path d="M95.36,169.48c.34,0,1.02,.56,1.36,1.13,.45,.68,.45,1.13,.11,1.13-.45,0-1.02-.45-1.47-1.13-.34-.56-.34-1.13,0-1.13h0Z" style="fill: #010101; fill-rule: evenodd;"/>
      </g>
      <g>
        <ellipse cx="73.67" cy="146.09" rx="1.92" ry="4.97" style="fill: #fff;"/>
        <path d="M73.67,134.34c-5.31-5.54-13.11-11.98-21.24-7.34,1.13-.46,3.27-.34,5.53,.34-4.4,3.05-6.1,11.97-6.21,16.49,0,3.62,.68,7.23,2.49,10.28,1.46,2.49,3.5,4.3,5.98,5.65,1.92,.91,4.07,1.58,6.22,1.92,4.29,.68,16.95,.68,18.64-4.74,2.15-7.12-6.78-17.74-11.41-22.6Zm8.7,21.81c-.73,2.29-11.07,4.68-18.96,1.84-1.93-4.12-2.82-8.49-2.82-12.51,0-6.31,2.19-11.72,5.96-13.85l-.03-.07c1.55,1.18,3.26,2.77,5.12,4.81,6.32,6.56,12.09,15.14,10.73,19.78Z" style="fill: #fff; fill-rule: evenodd;"/>
        <path d="M73.67,134.34c-5.31-5.54-13.11-11.98-21.24-7.34,1.13-.46,3.27-.34,5.53,.34-4.4,3.05-6.1,11.97-6.21,16.49,0,3.62,.68,7.23,2.49,10.28,1.46,2.49,3.5,4.3,5.98,5.65,1.92,.91,4.07,1.58,6.22,1.92,4.29,.68,16.95,.68,18.64-4.74,2.15-7.12-6.78-17.74-11.41-22.6Zm8.7,21.81c-.73,2.29-11.07,4.68-18.96,1.84-.67-.24-1.32-.51-1.94-.83-.72-.36-1.37-.78-1.96-1.25-8.97-7.03-3.63-24.85,.71-26.65,1-.41,2.27-.19,3.81,.66,.2,.11,.4,.22,.6,.35,.34,.23,.57,.45,.9,.57,.32,.22,.65,.46,.99,.72,1.55,1.18,3.26,2.77,5.12,4.81,6.32,6.56,12.09,15.14,10.73,19.78Z" style="fill: #000000; fill-rule: evenodd;"/>
        <path d="M71.64,136.37c-1.86-2.04-3.57-3.63-5.12-4.81l.03,.07c-3.77,2.13-5.96,7.54-5.96,13.85,0,4.02,.89,8.39,2.82,12.51,7.89,2.84,18.23,.45,18.96-1.84,1.36-4.64-4.41-13.22-10.73-19.78Zm2.03,14.69c-1.02,0-1.92-2.26-1.92-4.97s.9-4.97,1.92-4.97,1.92,2.26,1.92,4.97-.9,4.97-1.92,4.97Z" style="fill: #ed1c24; fill-rule: evenodd;"/>
        <path d="M60.59,145.48c0,4.02,.89,8.39,2.82,12.51,.03,.06,.06,.13,.09,.19l-2.15,1.92-.34-.56c-.57-1.16-1.07-2.38-1.5-3.63-1.54-4.47-2.17-9.43-1.55-14.11,.61-4.44,2.39-9.15,6.07-11.88,.43-.33,.9-.62,1.39-.89l1.1,2.53,.03,.07c-3.77,2.13-5.96,7.54-5.96,13.85Z" style="fill: #010101; fill-rule: evenodd;"/>
        <ellipse cx="73.67" cy="146.09" rx="1.92" ry="4.97" style="fill: #fff;"/>
        <path d="M89.83,151.06c-.05-2.41-.67-5.23-1.6-7.99-1.12-3.34-2.72-6.61-4.39-8.96-1.02-1.35-2.04-2.59-3.39-3.72,2.37,0,5.2,.9,7.23,4.52,.15,.28,.34,.63,.55,1.04,1.95,3.82,5.78,12.87,1.6,15.11Z" style="fill: #010101; fill-rule: evenodd;"/>
        <ellipse cx="73.67" cy="146.09" rx="1.92" ry="4.97" style="fill: #fff;"/>
      </g>
      <g>
        <path d="M138.36,146.09c0-2.71-.9-4.97-1.92-4.97s-1.92,2.26-1.92,4.97,.9,4.97,1.92,4.97,1.92-2.26,1.92-4.97Z" style="fill: #fff; fill-rule: evenodd;"/>
        <path d="M125.03,156.94c1.69,5.42,14.35,5.42,18.64,4.74,2.15-.34,4.3-1.01,6.22-1.92,2.48-1.35,4.52-3.16,5.98-5.65,1.81-3.05,2.49-6.66,2.49-10.28-.11-4.52-1.81-13.44-6.21-16.49,2.26-.68,4.4-.8,5.53-.34-8.13-4.64-15.93,1.8-21.24,7.34-4.63,4.86-13.56,15.48-11.41,22.6Zm13.44-20.57c1.86-2.04,3.57-3.63,5.12-4.81l-.03,.07c3.77,2.13,5.96,7.54,5.96,13.85,0,4.02-.89,8.39-2.82,12.51-7.89,2.84-18.23,.45-18.96-1.84-1.36-4.64,4.41-13.22,10.73-19.78Z" style="fill: #fff; fill-rule: evenodd;"/>
        <path d="M125.03,156.94c1.69,5.42,14.35,5.42,18.64,4.74,2.15-.34,4.3-1.01,6.22-1.92,2.48-1.35,4.52-3.16,5.98-5.65,1.81-3.05,2.49-6.66,2.49-10.28-.11-4.52-1.81-13.44-6.21-16.49,2.26-.68,4.4-.8,5.53-.34-8.13-4.64-15.93,1.8-21.24,7.34-4.63,4.86-13.56,15.48-11.41,22.6Zm13.44-20.57c1.86-2.04,3.57-3.63,5.12-4.81,.34-.26,.67-.5,.99-.72,.33-.12,.56-.34,.9-.57,.2-.13,.4-.24,.6-.35,1.54-.85,2.81-1.07,3.81-.66,4.34,1.8,9.68,19.62,.71,26.65-.59,.47-1.24,.89-1.96,1.25-.62,.32-1.27,.59-1.94,.83-7.89,2.84-18.23,.45-18.96-1.84-1.36-4.64,4.41-13.22,10.73-19.78Z" style="fill: #000000; fill-rule: evenodd;"/>
        <path d="M127.74,156.15c.73,2.29,11.07,4.68,18.96,1.84,1.93-4.12,2.82-8.49,2.82-12.51,0-6.31-2.19-11.72-5.96-13.85l.03-.07c-1.55,1.18-3.26,2.77-5.12,4.81-6.32,6.56-12.09,15.14-10.73,19.78Zm6.78-10.06c0-2.71,.9-4.97,1.92-4.97s1.92,2.26,1.92,4.97-.9,4.97-1.92,4.97-1.92-2.26-1.92-4.97Z" style="fill: #ed1c24; fill-rule: evenodd;"/>
        <path d="M149.52,145.48c0,4.02-.89,8.39-2.82,12.51-.03,.06-.06,.13-.09,.19l2.15,1.92,.34-.56c.57-1.16,1.07-2.38,1.5-3.63,1.54-4.47,2.17-9.43,1.55-14.11-.61-4.44-2.39-9.15-6.07-11.88-.43-.33-.9-.62-1.39-.89l-1.1,2.53-.03,.07c3.77,2.13,5.96,7.54,5.96,13.85Z" style="fill: #010101; fill-rule: evenodd;"/>
        <path d="M134.52,146.09c0,2.71,.9,4.97,1.92,4.97s1.92-2.26,1.92-4.97-.9-4.97-1.92-4.97-1.92,2.26-1.92,4.97Z" style="fill: #fff; fill-rule: evenodd;"/>
        <path d="M120.28,151.06c.05-2.41,.67-5.23,1.6-7.99,1.12-3.34,2.72-6.61,4.39-8.96,1.02-1.35,2.04-2.59,3.39-3.72-2.37,0-5.2,.9-7.23,4.52-.15,.28-.34,.63-.55,1.04-1.95,3.82-5.78,12.87-1.6,15.11Z" style="fill: #010101; fill-rule: evenodd;"/>
      </g>
      <g>
        <path d="M209.27,205.86H.89c-.14,.35-.21,.73-.21,1.13,0,.15,.01,.3,.03,.45,.01,.12,.04,.24,.07,.36H.78c6.24,52.16,50.57,92.52,104.3,92.52s98.06-40.36,104.3-92.51h0c.03-.13,.06-.25,.07-.37,.02-.15,.03-.3,.03-.45,0-.4-.07-.78-.21-1.13Zm-8.15,12.43h-68.25c-6.77,8.02-16.83,12.77-27.34,12.77h-.9c-10.62,0-20.57-4.75-27.34-12.77H9.04c-.65-2.62-1.19-5.36-1.61-8.13H75.68c5.47,10.7,16.55,18.07,29.4,18.07s23.93-7.37,29.4-18.07h68.25c-.42,2.77-.96,5.51-1.61,8.13Z" style="fill: #fff; fill-rule: evenodd;"/>
        <path d="M.71,207.44c.01,.12,.04,.24,.07,.36H.78c6.24,52.16,50.57,92.52,104.3,92.52s98.06-40.36,104.3-92.51h0c.03-.13,.06-.25,.07-.37H.71Zm126.4,2.72c-4.81,7.09-12.9,11.75-22.03,11.75s-17.32-4.66-22.08-11.75h44.11Zm-22.03,83.72c-45.53,0-83.95-30.73-95.36-72.76H76.04c7.23,8.13,17.63,12.76,28.59,12.76h.9c10.96,0,21.24-4.63,28.59-12.76h66.21c-11.41,42.03-49.72,72.76-95.25,72.76Z" style="fill: #58595b; fill-rule: evenodd;"/>
        <path d="M203.15,206.99l-.06,.45c-.1,.91-.23,1.81-.36,2.72-.42,2.77-.96,5.51-1.61,8.13h-68.25c-6.77,8.02-16.83,12.77-27.34,12.77h-.9c-10.62,0-20.57-4.75-27.34-12.77H9.04c-.65-2.62-1.19-5.36-1.61-8.13-.13-.91-.26-1.81-.36-2.72l-.06-.45H.68c.02,.15,.03,.3,.06,.45,0,.12,.02,.24,.04,.36H.78c6.24,52.16,50.57,92.52,104.3,92.52s98.06-40.36,104.3-92.51h0c.02-.13,.03-.25,.04-.37,.03-.15,.04-.3,.06-.45h-6.33Zm-98.07,86.89c-45.53,0-83.95-30.73-95.36-72.76H76.04c7.23,8.13,17.63,12.76,28.59,12.76h.9c10.96,0,21.24-4.63,28.59-12.76h66.21c-11.41,42.03-49.72,72.76-95.25,72.76Z" style="fill: #010101; fill-rule: evenodd; stroke: #000000; stroke-miterlimit: 10;"/>
        <path d="M209.48,206.99c0,.15,0,.3-.03,.45-.01,.12-.04,.24-.07,.36h0c-.14,.57-.42,1.07-.81,1.45-.56,.57-1.35,.91-2.25,.91H3.84c-1.52,0-2.72-.97-3.06-2.35H.78c-.03-.13-.06-.25-.07-.37-.02-.15-.03-.3-.03-.45,0-.4,.07-.78,.21-1.13,.16-.4,.4-.77,.7-1.08,.56-.58,1.35-.95,2.25-.95H206.32c1.38,0,2.5,.87,2.95,2.03,.14,.35,.21,.73,.21,1.13Z" style="fill: #000000; fill-rule: evenodd;"/>
        <path d="M136.94,203.83c-.19,.68-.4,1.36-.63,2.03-.18,.53-.38,1.06-.59,1.58-.37,.93-.78,1.84-1.24,2.72-5.47,10.7-16.55,18.07-29.4,18.07s-23.93-7.37-29.4-18.07c-.46-.88-.87-1.79-1.24-2.72-.21-.52-.41-1.05-.59-1.58-.23-.67-.44-1.35-.63-2.03h6.66c.23,.69,.49,1.37,.77,2.03,.23,.54,.48,1.07,.75,1.58,.48,.94,1.01,1.85,1.6,2.72,4.76,7.09,12.86,11.75,22.08,11.75s17.22-4.66,22.03-11.75c.59-.87,1.13-1.78,1.62-2.72,.27-.51,.52-1.04,.75-1.58,.3-.66,.56-1.34,.8-2.03h6.66Z" style="fill: #010101; fill-rule: evenodd;"/>
        <path d="M105.08,0c58.08,0,105.08,47,105.08,105.08,0,27.23-10.39,52.09-27.34,70.73v-1.13c0-2.15-1.13-4.07-2.82-5.31,14.91-17.17,23.84-39.66,23.84-64.29,0-54.57-44.18-98.75-98.75-98.75S6.33,50.51,6.33,105.08c0,25.2,9.49,48.25,24.97,65.76-2.03,1.02-3.39,3.16-3.39,5.54C10.51,157.62,0,132.65,0,105.08,0,47,47,0,105.08,0h0Zm16.84,29.83c15.03,3.39,28.47,11.07,38.87,21.92-1.36-.45-2.71-.45-3.95,0-9.38-9.04-21.02-15.59-33.9-18.76-.11-1.13-.45-2.15-1.02-3.16h0Zm59.88,82.59c-.79,8.93-3.16,17.4-6.78,25.2-.34-1.13-.9-2.03-1.81-2.82,2.82-6.44,4.75-13.33,5.65-20.56,1.24-.34,2.03-.9,2.94-1.81h0Zm-147.9,22.6c-2.37-5.65-4.07-11.75-5.08-17.97,.9,.9,2.03,1.58,3.28,1.92,.9,4.97,2.37,9.72,4.18,14.24-.9,.45-1.69,1.02-2.37,1.81h0Zm14.24-82.03c9.04-9.72,20.45-17.29,33.44-21.35-.45,.9-.56,2.03-.34,3.05-10.96,3.73-20.68,9.83-28.7,17.74-1.69-.34-2.82,0-4.41,.56h0Z" style="fill: #010101; fill-rule: evenodd;"/>
      </g>
      <g>
        <path d="M99.2,108.36c.68,5.65,8.59,10.17,14.24,4.18,5.65-6.1,6.44-17.74,2.94-19.21-6.1-2.49-17.74,9.83-17.17,15.03h0Z" style="fill: #026459; fill-rule: evenodd;"/>
        <path d="M102.82,135.81c.23,3.73,4.41,4.97,6.21,2.94,1.13-1.24,2.15-9.27,.11-9.83-2.03-.56-6.44,4.29-6.33,6.89h0Z" style="fill: #026459; fill-rule: evenodd;"/>
        <path d="M90.5,110.5c1.69,0,2.94,1.81,2.71,4.18-.23,2.37-1.81,4.29-3.62,4.29s-3.05-1.92-2.71-4.29c.23-2.37,1.81-4.18,3.62-4.18h0Z" style="fill: #026459; fill-rule: evenodd;"/>
      </g>
    </g>
  </g>
</svg>