<?xml version="1.0" encoding="UTF-8"?>
<svg id="Camada_2" data-name="Camada 2" xmlns="http://www.w3.org/2000/svg" viewBox="0 0 217.85 300.52">
  <g id="Layer_1" data-name="Layer 1">
    <g>
      <g>
        <ellipse cx="105.11" cy="104.16" rx="103.46" ry="100.44" style="fill: #c33;"/>
        <path d="M209.27,205.56H.89c-.14,.35-.21,.73-.21,1.13,0,.15,0,.3,.03,.45,0,.12,.04,.24,.07,.36H.78c6.24,52.16,50.57,92.52,104.3,92.52s98.06-40.36,104.3-92.51h0c.03-.13,.06-.25,.07-.37,.02-.15,.03-.3,.03-.45,0-.4-.07-.78-.21-1.13Zm-8.15,12.43h-68.25c-6.77,8.02-16.83,12.77-27.34,12.77h-.9c-10.62,0-20.57-4.75-27.34-12.77H9.04c-.65-2.62-1.19-5.36-1.61-8.13H75.68c5.47,10.7,16.55,18.07,29.4,18.07s23.93-7.37,29.4-18.07h68.25c-.42,2.77-.96,5.51-1.61,8.13Z" style="fill: #fff; fill-rule: evenodd;"/>
        <path d="M.71,207.14c0,.12,.04,.24,.07,.36H.78c6.24,52.16,50.57,92.52,104.3,92.52s98.06-40.36,104.3-92.51h0c.03-.13,.06-.25,.07-.37H.71Zm126.4,2.72c-4.81,7.09-12.9,11.75-22.03,11.75s-17.32-4.66-22.08-11.75h44.11Zm-22.03,83.72c-45.53,0-83.95-30.73-95.36-72.76H76.04c7.23,8.13,17.63,12.76,28.59,12.76h.9c10.96,0,21.24-4.63,28.59-12.76h66.21c-11.41,42.03-49.72,72.76-95.25,72.76Z" style="fill: #58595b; fill-rule: evenodd;"/>
        <path d="M136.94,203.53c-.19,.68-.4,1.36-.63,2.03-.18,.53-.38,1.06-.59,1.58-.37,.93-.78,1.84-1.24,2.72-5.47,10.7-16.55,18.07-29.4,18.07s-23.93-7.37-29.4-18.07c-.46-.88-.87-1.79-1.24-2.72-.21-.52-.41-1.05-.59-1.58-.23-.67-.44-1.35-.63-2.03h6.66c.23,.69,.49,1.37,.77,2.03,.23,.54,.48,1.07,.75,1.58,.48,.94,1.01,1.85,1.6,2.72,4.76,7.09,12.86,11.75,22.08,11.75s17.22-4.66,22.03-11.75c.59-.87,1.13-1.78,1.62-2.72,.27-.51,.52-1.04,.75-1.58,.3-.66,.56-1.34,.8-2.03h6.66Z" style="fill: #010101; fill-rule: evenodd;"/>
        <path d="M105.08,0c58.08,0,105.08,47,105.08,105.08,0,11.86-1.92,23.16-5.54,33.78-1.58-1.58-3.84-2.26-6.1-1.81,3.5-10.06,5.31-20.79,5.31-31.98,0-54.57-44.18-98.75-98.75-98.75S6.33,50.51,6.33,105.08c0,33.56,16.72,63.27,42.37,81.13-2.15,.79-3.62,2.71-3.95,4.86C17.63,172.08,0,140.67,0,105.08,0,47,47,0,105.08,0h0Zm0,27.91c42.6,0,77.17,34.57,77.17,77.17,0,10.51-2.15,20.56-5.99,29.83-.9-.45-1.92-.68-2.82-.68,3.84-8.93,5.99-18.76,5.99-29.15,0-41.01-33.33-74.35-74.35-74.35S30.73,64.06,30.73,105.08c0,22.94,10.39,43.39,26.67,56.95-.56,.79-.9,1.81-1.02,2.82-17.4-14.12-28.47-35.7-28.47-59.77,0-42.6,34.57-77.17,77.17-77.17h0Z" style="fill: #010101; fill-rule: evenodd;"/>
      </g>
      <g>
        <g>
          <path d="M209.48,206.88c0,.91-.34,1.7-.91,2.26-.56,.57-1.35,.91-2.26,.91H3.84c-.86,0-1.64-.31-2.19-.85v-4.6c.55-.54,1.33-.88,2.19-.88H39.71c.65-13.71,6.1-26.35,15.31-36.49-1.7-1.9-3.29-3.97-4.74-6.22-6.56-10.17-9.16-22.26-9.16-34.24,0-34.01,29.95-63.72,63.95-63.72s63.96,29.71,63.96,63.72c0,1.76-.06,3.52-.18,5.28,12.76-5.45,28.36-4.74,38.93,5.01,6.55,5.98,10.28,14.68,10.06,23.5-.19,8.33-4.5,16.16-10.62,21.5-.53,1.13-1.13,2.21-1.81,3.24-5.93,9.39-16.5,14.92-26.8,18.42h27.7c1.81,0,3.17,1.47,3.17,3.16Z" style="fill: #58595b; fill-rule: evenodd;"/>
          <path d="M170.44,203.72c-.07-1.37-.18-2.73-.34-4.08-1.45-12.33-6.8-23.46-15-32.37,1.71-1.91,3.31-3.99,4.77-6.26,.86-1.32,1.65-2.68,2.36-4.07h-7.28c-8.56,13.79-24.57,22.82-49.88,22.82s-41.32-9.03-49.87-22.82h-7.29c.73,1.39,1.52,2.75,2.37,4.07,1.45,2.25,3.04,4.32,4.74,6.22-9.21,10.14-14.66,22.78-15.31,36.49h-4.61v6.33H193.72v-6.33h-23.28Zm-124.39,0c.66-11.95,5.54-23.12,13.53-32.01,.48,.43,.98,.84,1.47,1.24-3.57,9.77-4.82,20.36-3.69,30.77h-11.31Zm107.11,0c1.25-10.49-.02-21.2-3.72-31.07,.39-.3,.77-.62,1.15-.95,8,8.89,12.86,20.04,13.51,32.02h-10.94Z" style="fill: #58595b; fill-rule: evenodd;"/>
          <path d="M217.84,160.56c-.19,8.33-4.5,16.16-10.62,21.5-3.92,3.43-8.6,5.84-13.42,6.71-5.8,1.04-11.81-.15-16.98-4.49-5.53-4.63-8.59-12.09-7.68-19.2,1.58-11.3,17.4-15.26,19.32-8.36-4.18-.57-11.98,1.58-12.99,9.15-.68,4.97,1.46,10.39,5.53,13.67,12.32,10.05,30.96-4.75,30.51-20.45-.23-6.44-3.05-12.88-8.02-17.4-7.91-7.28-22.3-9.58-35.5-2.25-.75,.41-1.5,.86-2.24,1.34-.23,.34-.45,.57-.68,.91v-7.8c1.23-.68,2.49-1.29,3.78-1.84,12.76-5.45,28.36-4.74,38.93,5.01,6.55,5.98,10.28,14.68,10.06,23.5Z" style="fill: #58595b; fill-rule: evenodd;"/>
          <path d="M105.07,63.05c-34,0-63.95,29.71-63.95,63.72,0,10.42,1.97,20.92,6.79,30.17,.73,1.39,1.52,2.75,2.37,4.07,1.45,2.25,3.04,4.32,4.74,6.22,1.44,1.62,2.96,3.11,4.56,4.48,.48,.43,.98,.84,1.47,1.24,.76,.6,1.53,1.18,2.32,1.73,11.43,8.1,25.82,11.22,40.35,11.4,.45,.01,.9,.01,1.35,.01s.91,0,1.36-.01c14.67-.18,29.2-3.36,40.68-11.64,.79-.56,1.57-1.15,2.33-1.79,.39-.3,.77-.62,1.15-.95,1.58-1.36,3.08-2.83,4.51-4.43,1.71-1.91,3.31-3.99,4.77-6.26,.86-1.32,1.65-2.68,2.36-4.07,2.87-5.49,4.72-11.41,5.76-17.5,.42-2.44,.7-4.91,.86-7.39,.12-1.76,.18-3.52,.18-5.28,0-34.01-29.95-63.72-63.96-63.72Zm49.88,93.89c-8.56,13.79-24.57,22.82-49.88,22.82s-41.32-9.03-49.87-22.82c-5.31-8.56-7.75-18.95-7.75-30.17,0-29.26,25.87-57.39,57.62-57.39s57.63,28.13,57.63,57.39c0,11.22-2.44,21.61-7.75,30.17Z" style="fill: #58595b; fill-rule: evenodd;"/>
          <path d="M56.72,165.42c-.58,.59-1.15,1.2-1.7,1.81-9.21,10.14-14.66,22.78-15.31,36.49-.06,1.19-.08,2.4-.06,3.61h6.33c-.02-1.21,.01-2.41,.07-3.61,.66-11.95,5.54-23.12,13.53-32.01,.61-.68,1.23-1.35,1.88-2-2.15-.45-4.07-2.04-4.74-4.29Zm113.72,38.3c-.07-1.37-.18-2.73-.34-4.08-1.45-12.33-6.8-23.46-15-32.37-.58-.63-1.17-1.25-1.78-1.85-.23,2.25-1.81,4.18-3.84,5.08,.38,.4,.75,.8,1.11,1.2,8,8.89,12.86,20.04,13.51,32.02,.07,1.2,.09,2.4,.07,3.61h6.32c.01-.41,.01-.82,0-1.22,0-.8-.02-1.6-.05-2.39Zm-21-31.07c-.24-.64-.49-1.28-.75-1.92-.91,.22-2.04,.22-2.94,.22,.49,1.14,.94,2.3,1.36,3.49,1.75,4.91,2.95,10.17,3.5,15.72-12.77,5.42-27.91,8.59-44.18,8.81v-15.93c-.9,.23-1.81,.23-2.71,.11v15.82c-16.16-.22-31.07-3.27-43.73-8.58,.47-5.56,1.61-10.82,3.38-15.71,.39-1.07,.8-2.13,1.25-3.16-.9-.34-1.8-.79-2.48-1.36-.38,.92-.75,1.85-1.09,2.79-3.57,9.77-4.82,20.36-3.69,30.77,.13,1.21,.29,2.41,.49,3.61h2.82c-.21-1.2-.37-2.4-.5-3.61-.38-3.46-.46-6.96-.29-10.4,13.78,5.65,29.04,8.36,43.84,8.48v5.53h2.71v-5.53c14.91-.12,30.39-2.83,44.29-8.7,.17,3.54,.09,7.08-.35,10.62-.14,1.2-.32,2.41-.55,3.61h2.82c.21-1.2,.38-2.4,.52-3.61,1.25-10.49-.02-21.2-3.72-31.07Z" style="fill: #58595b; fill-rule: evenodd;"/>
          <path d="M116.6,152.08c-.68,0-1.81,1.02-2.71,2.37-.79,1.47-1.02,2.49-.34,2.49s1.92-1.02,2.82-2.49c.79-1.36,.9-2.37,.23-2.37h0Z" style="fill: #58595b; fill-rule: evenodd;"/>
          <path d="M93.55,152.08c.68,0,1.81,1.02,2.71,2.37,.79,1.47,1.02,2.49,.34,2.49s-1.92-1.02-2.82-2.49c-.79-1.36-.9-2.37-.23-2.37h0Z" style="fill: #58595b; fill-rule: evenodd;"/>
          <path d="M208.57,178.63c-.39,1.18-.84,2.32-1.35,3.43-.53,1.13-1.13,2.21-1.81,3.24-5.93,9.39-16.5,14.92-26.8,18.42-.11,.04-.21,.07-.32,.11-2.39,.8-5.06,1.59-7.8,2.28-.75,.2-1.5,.38-2.26,.55-.17-.77-.38-1.8-.62-2.94-.22-1.03-.46-2.15-.73-3.28,1.07-.25,2.14-.51,3.22-.8,8.54-2.25,17.25-5.66,23.7-10.87,1.62-1.31,3.09-2.72,4.38-4.26,4.74-1.24,8.13-3.5,10.39-5.88Z" style="fill: #58595b; fill-rule: evenodd;"/>
          <path d="M58.53,151.06c1.02,2.15,2.37,4.29,8.14,5.31,4.86,.79,9.83,1.47,14.8,2.26,3.95,.56,7.91,1.24,11.86,1.92,2.26,.45,5.88,1.13,7.91,2.15,.34,.11,3.39,1.92,3.73,2.03h.23c.34-.11,3.39-1.92,3.73-2.03,2.03-1.02,5.65-1.69,7.91-2.15,3.95-.68,7.91-1.36,11.86-1.92,4.97-.79,9.94-1.47,14.91-2.26,5.76-1.02,7.01-3.16,8.02-5.31,.23,4.97-1.81,7.01-7.57,8.02-9.49,1.69-29.94,4.18-33.9,6.21-3.39,1.58-4.18,2.49-4.97,2.6h-.23c-.79-.11-1.58-1.02-4.97-2.6-3.95-2.03-24.41-4.52-33.9-6.21-5.65-1.02-7.8-3.05-7.57-8.02h0Z" style="fill: #58595b; fill-rule: evenodd;"/>
        </g>
        <g>
          <path d="M209.48,206.88c0,.91-.34,1.7-.91,2.26-.56,.57-1.35,.91-2.26,.91H3.84c-.86,0-1.64-.31-2.19-.85v-4.6c.55-.54,1.33-.88,2.19-.88H39.71c.65-13.71,6.1-26.35,15.31-36.49-1.7-1.9-3.29-3.97-4.74-6.22-6.56-10.17-9.16-22.26-9.16-34.24,0-34.01,29.95-63.72,63.95-63.72s63.96,29.71,63.96,63.72c0,1.76-.06,3.52-.18,5.28,12.76-5.45,28.36-4.74,38.93,5.01,6.55,5.98,10.28,14.68,10.06,23.5-.19,8.33-4.5,16.16-10.62,21.5-.53,1.13-1.13,2.21-1.81,3.24-5.93,9.39-16.5,14.92-26.8,18.42h27.7c1.81,0,3.17,1.47,3.17,3.16Z" style="fill: #85c9be; fill-rule: evenodd;"/>
          <path d="M170.44,203.72c-.07-1.37-.18-2.73-.34-4.08-1.45-12.33-6.8-23.46-15-32.37,1.71-1.91,3.31-3.99,4.77-6.26,.86-1.32,1.65-2.68,2.36-4.07h-7.28c-8.56,13.79-24.57,22.82-49.88,22.82s-41.32-9.03-49.87-22.82h-7.29c.73,1.39,1.52,2.75,2.37,4.07,1.45,2.25,3.04,4.32,4.74,6.22-9.21,10.14-14.66,22.78-15.31,36.49h-4.61v6.33H193.72v-6.33h-23.28Zm-124.39,0c.66-11.95,5.54-23.12,13.53-32.01,.48,.43,.98,.84,1.47,1.24-3.57,9.77-4.82,20.36-3.69,30.77h-11.31Zm107.11,0c1.25-10.49-.02-21.2-3.72-31.07,.39-.3,.77-.62,1.15-.95,8,8.89,12.86,20.04,13.51,32.02h-10.94Z" style="fill: #f2e108; fill-rule: evenodd;"/>
          <path d="M217.84,160.56c-.19,8.33-4.5,16.16-10.62,21.5-3.92,3.43-8.6,5.84-13.42,6.71-5.8,1.04-11.81-.15-16.98-4.49-5.53-4.63-8.59-12.09-7.68-19.2,1.58-11.3,17.4-15.26,19.32-8.36-4.18-.57-11.98,1.58-12.99,9.15-.68,4.97,1.46,10.39,5.53,13.67,12.32,10.05,30.96-4.75,30.51-20.45-.23-6.44-3.05-12.88-8.02-17.4-7.91-7.28-22.3-9.58-35.5-2.25-.75,.41-1.5,.86-2.24,1.34-.23,.34-.45,.57-.68,.91v-7.8c1.23-.68,2.49-1.29,3.78-1.84,12.76-5.45,28.36-4.74,38.93,5.01,6.55,5.98,10.28,14.68,10.06,23.5Z" style="fill: #010101; fill-rule: evenodd;"/>
          <path d="M105.07,63.05c-34,0-63.95,29.71-63.95,63.72,0,10.42,1.97,20.92,6.79,30.17,.73,1.39,1.52,2.75,2.37,4.07,1.45,2.25,3.04,4.32,4.74,6.22,1.44,1.62,2.96,3.11,4.56,4.48,.48,.43,.98,.84,1.47,1.24,.76,.6,1.53,1.18,2.32,1.73,11.43,8.1,25.82,11.22,40.35,11.4,.45,.01,.9,.01,1.35,.01s.91,0,1.36-.01c14.67-.18,29.2-3.36,40.68-11.64,.79-.56,1.57-1.15,2.33-1.79,.39-.3,.77-.62,1.15-.95,1.58-1.36,3.08-2.83,4.51-4.43,1.71-1.91,3.31-3.99,4.77-6.26,.86-1.32,1.65-2.68,2.36-4.07,2.87-5.49,4.72-11.41,5.76-17.5,.42-2.44,.7-4.91,.86-7.39,.12-1.76,.18-3.52,.18-5.28,0-34.01-29.95-63.72-63.96-63.72Zm49.88,93.89c-8.56,13.79-24.57,22.82-49.88,22.82s-41.32-9.03-49.87-22.82c-5.31-8.56-7.75-18.95-7.75-30.17,0-29.26,25.87-57.39,57.62-57.39s57.63,28.13,57.63,57.39c0,11.22-2.44,21.61-7.75,30.17Z" style="fill: #010101; fill-rule: evenodd;"/>
          <path d="M56.72,165.42c-.58,.59-1.15,1.2-1.7,1.81-9.21,10.14-14.66,22.78-15.31,36.49-.06,1.19-.08,2.4-.06,3.61h6.33c-.02-1.21,.01-2.41,.07-3.61,.66-11.95,5.54-23.12,13.53-32.01,.61-.68,1.23-1.35,1.88-2-2.15-.45-4.07-2.04-4.74-4.29Zm113.72,38.3c-.07-1.37-.18-2.73-.34-4.08-1.45-12.33-6.8-23.46-15-32.37-.58-.63-1.17-1.25-1.78-1.85-.23,2.25-1.81,4.18-3.84,5.08,.38,.4,.75,.8,1.11,1.2,8,8.89,12.86,20.04,13.51,32.02,.07,1.2,.09,2.4,.07,3.61h6.32c.01-.41,.01-.82,0-1.22,0-.8-.02-1.6-.05-2.39Zm-21-31.07c-.24-.64-.49-1.28-.75-1.92-.91,.22-2.04,.22-2.94,.22,.49,1.14,.94,2.3,1.36,3.49,1.75,4.91,2.95,10.17,3.5,15.72-12.77,5.42-27.91,8.59-44.18,8.81v-15.93c-.9,.23-1.81,.23-2.71,.11v15.82c-16.16-.22-31.07-3.27-43.73-8.58,.47-5.56,1.61-10.82,3.38-15.71,.39-1.07,.8-2.13,1.25-3.16-.9-.34-1.8-.79-2.48-1.36-.38,.92-.75,1.85-1.09,2.79-3.57,9.77-4.82,20.36-3.69,30.77,.13,1.21,.29,2.41,.49,3.61h2.82c-.21-1.2-.37-2.4-.5-3.61-.38-3.46-.46-6.96-.29-10.4,13.78,5.65,29.04,8.36,43.84,8.48v5.53h2.71v-5.53c14.91-.12,30.39-2.83,44.29-8.7,.17,3.54,.09,7.08-.35,10.62-.14,1.2-.32,2.41-.55,3.61h2.82c.21-1.2,.38-2.4,.52-3.61,1.25-10.49-.02-21.2-3.72-31.07Z" style="fill: #010101; fill-rule: evenodd;"/>
          <path d="M116.6,152.08c-.68,0-1.81,1.02-2.71,2.37-.79,1.47-1.02,2.49-.34,2.49s1.92-1.02,2.82-2.49c.79-1.36,.9-2.37,.23-2.37h0Z" style="fill: #010101; fill-rule: evenodd;"/>
          <path d="M93.55,152.08c.68,0,1.81,1.02,2.71,2.37,.79,1.47,1.02,2.49,.34,2.49s-1.92-1.02-2.82-2.49c-.79-1.36-.9-2.37-.23-2.37h0Z" style="fill: #010101; fill-rule: evenodd;"/>
          <path d="M208.57,178.63c-.39,1.18-.84,2.32-1.35,3.43-.53,1.13-1.13,2.21-1.81,3.24-5.93,9.39-16.5,14.92-26.8,18.42-.11,.04-.21,.07-.32,.11-2.39,.8-5.06,1.59-7.8,2.28-.75,.2-1.5,.38-2.26,.55-.17-.77-.38-1.8-.62-2.94-.22-1.03-.46-2.15-.73-3.28,1.07-.25,2.14-.51,3.22-.8,8.54-2.25,17.25-5.66,23.7-10.87,1.62-1.31,3.09-2.72,4.38-4.26,4.74-1.24,8.13-3.5,10.39-5.88Z" style="fill: #010101; fill-rule: evenodd;"/>
          <path d="M58.53,151.06c1.02,2.15,2.37,4.29,8.14,5.31,4.86,.79,9.83,1.47,14.8,2.26,3.95,.56,7.91,1.24,11.86,1.92,2.26,.45,5.88,1.13,7.91,2.15,.34,.11,3.39,1.92,3.73,2.03h.23c.34-.11,3.39-1.92,3.73-2.03,2.03-1.02,5.65-1.69,7.91-2.15,3.95-.68,7.91-1.36,11.86-1.92,4.97-.79,9.94-1.47,14.91-2.26,5.76-1.02,7.01-3.16,8.02-5.31,.23,4.97-1.81,7.01-7.57,8.02-9.49,1.69-29.94,4.18-33.9,6.21-3.39,1.58-4.18,2.49-4.97,2.6h-.23c-.79-.11-1.58-1.02-4.97-2.6-3.95-2.03-24.41-4.52-33.9-6.21-5.65-1.02-7.8-3.05-7.57-8.02h0Z" style="fill: #010101; fill-rule: evenodd;"/>
        </g>
      </g>
      <path d="M209.48,206.93c0,.17-.01,.33-.03,.5,0,.13-.04,.27-.07,.4h0c-.14,.63-.42,1.18-.81,1.6-.56,.63-1.35,1.01-2.25,1.01H3.84c-1.52,0-2.72-1.07-3.06-2.6H.78c-.03-.14-.06-.28-.07-.41-.02-.17-.03-.33-.03-.5,0-.44,.07-.86,.21-1.25,.16-.44,.4-.85,.7-1.19,.56-.64,1.35-1.05,2.25-1.05H206.32c1.38,0,2.5,.96,2.95,2.24,.14,.39,.21,.81,.21,1.25Z" style="fill: #000000; fill-rule: evenodd;"/>
      <path d="M203.15,206.69c-.02,.15-.04,.3-.06,.45-.1,.91-.23,1.81-.36,2.72-.42,2.77-.96,5.51-1.61,8.13h-68.25c-6.77,8.02-16.83,12.77-27.34,12.77h-.9c-10.62,0-20.57-4.75-27.34-12.77H9.04c-.65-2.62-1.19-5.36-1.61-8.13-.13-.91-.26-1.81-.36-2.72-.02-.15-.04-.3-.06-.45H.68c.02,.15,.03,.3,.06,.45,0,.12,.02,.24,.04,.36H.78c6.24,52.16,50.57,92.52,104.3,92.52s98.06-40.36,104.3-92.51h0c.02-.13,.03-.25,.04-.37,.03-.15,.04-.3,.06-.45h-6.33Zm-98.07,86.89c-45.53,0-83.95-30.73-95.36-72.76H76.04c7.23,8.13,17.63,12.76,28.59,12.76h.9c10.96,0,21.24-4.63,28.59-12.76h66.21c-11.41,42.03-49.72,72.76-95.25,72.76Z" style="fill: #010101; fill-rule: evenodd; stroke: #000000; stroke-miterlimit: 10;"/>
      <g>
        <path d="M77.06,95.53h-9.81c-.36,.37-.64,.8-.82,1.3,2.94-1.58,6.1-1.02,8.82,.79,2.37,1.7,4.18,4.41,4.18,7.57,.3-.23,.56-.52,.75-.87v-4.85l-3.12-3.94Z" style="fill: #fff; fill-rule: evenodd;"/>
        <path d="M80.18,116.67v17.84c-.53,3.41-1.45,6.5-3.01,8.19-4.52,5.2-17.29,2.6-20.91-2.93-3.61-5.54-3.27-13.79-2.14-19.89,1.24-6.44,5.87-20.22,14.12-20.22,1.02,0,2.03,.11,3.05,.56,5.64,2.15,7.95,9.98,8.89,16.45Z" style="fill: #fff; fill-rule: evenodd;"/>
        <path d="M76.49,109.37c-.94-1.85-1.93-3.07-2.94-3.76-7.76-5.28-16.67,20.64-9.32,36.25,.26,.56,.54,1.11,.85,1.64,4.29,1.58,9.94,1.58,11.86-.68,3.39-3.73,4.41-23.96-.45-33.45Zm-4.75-1.47c1.36,0,2.49,3.17,2.49,7.24s-1.13,7.23-2.49,7.23-2.48-3.28-2.48-7.23,1.13-7.24,2.48-7.24Z" style="fill: #c52026; fill-rule: evenodd;"/>
        <path d="M80.67,121.35c-.1-1.38-.25-2.99-.49-4.68-.94-6.47-3.25-14.3-8.89-16.45-1.02-.45-2.03-.56-3.05-.56-8.25,0-12.88,13.78-14.12,20.22-1.13,6.1-1.47,14.35,2.14,19.89,3.62,5.53,16.39,8.13,20.91,2.93,1.56-1.69,2.48-4.78,3.01-8.19,.73-4.76,.69-10.13,.49-13.16Zm-22.03,16.84c-6.67-10.17,1.35-35.71,9.6-35.71,2.17,0,3.92,1.18,5.31,3.13,5.99,8.43,5.16,31.25,1.58,35.29-1.85,2-6.78,2.24-10.9,.96-2.39-.73-4.51-1.97-5.59-3.67Z" style="fill: #010101; fill-rule: evenodd;"/>
        <path d="M80.18,104.32c-.19,.35-.45,.64-.75,.87,0-3.16-1.81-5.87-4.18-7.57-2.72-1.81-5.88-2.37-8.82-.79,.18-.5,.46-.93,.82-1.3,2.03-2.11,6.57-2.18,9.81,0,1.36,.91,2.49,2.22,3.12,3.94,.25,.7,.42,1.48,.49,2.33,.07,.97-.1,1.85-.49,2.52Z" style="fill: #010101; fill-rule: evenodd;"/>
      </g>
      <g>
        <path d="M129.97,99.47v4.85c.19,.35,.45,.64,.75,.87,0-3.16,1.81-5.87,4.18-7.57,2.72-1.81,5.88-2.37,8.82-.79-.18-.5-.46-.93-.82-1.3h-9.81l-3.12,3.94Z" style="fill: #fff; fill-rule: evenodd;"/>
        <path d="M129.97,116.67v17.84c.53,3.41,1.45,6.5,3.01,8.19,4.52,5.2,17.29,2.6,20.91-2.93,3.61-5.54,3.27-13.79,2.14-19.89-1.24-6.44-5.87-20.22-14.12-20.22-1.02,0-2.03,.11-3.05,.56-5.64,2.15-7.95,9.98-8.89,16.45Z" style="fill: #fff; fill-rule: evenodd;"/>
        <path d="M133.22,142.82c1.92,2.26,7.57,2.26,11.86,.68,.31-.53,.59-1.08,.85-1.64,7.35-15.61-1.56-41.53-9.32-36.25-1.01,.69-2,1.91-2.94,3.76-4.86,9.49-3.84,29.72-.45,33.45Zm7.68-27.68c0,3.95-1.13,7.23-2.48,7.23s-2.49-3.28-2.49-7.23,1.13-7.24,2.49-7.24,2.48,3.17,2.48,7.24Z" style="fill: #c52026; fill-rule: evenodd;"/>
        <path d="M129.97,134.51c.53,3.41,1.45,6.5,3.01,8.19,4.52,5.2,17.29,2.6,20.91-2.93,3.61-5.54,3.27-13.79,2.14-19.89-1.24-6.44-5.87-20.22-14.12-20.22-1.02,0-2.03,.11-3.05,.56-5.64,2.15-7.95,9.98-8.89,16.45-.24,1.69-.39,3.3-.49,4.68-.2,3.03-.24,8.4,.49,13.16Zm15.95,7.35c-4.12,1.28-9.05,1.04-10.9-.96-3.58-4.04-4.41-26.86,1.58-35.29,1.39-1.95,3.14-3.13,5.31-3.13,8.25,0,16.27,25.54,9.6,35.71-1.08,1.7-3.2,2.94-5.59,3.67Z" style="fill: #010101; fill-rule: evenodd;"/>
        <path d="M129.97,104.32c.19,.35,.45,.64,.75,.87,0-3.16,1.81-5.87,4.18-7.57,2.72-1.81,5.88-2.37,8.82-.79-.18-.5-.46-.93-.82-1.3-2.03-2.11-6.57-2.18-9.81,0-1.36,.91-2.49,2.22-3.12,3.94-.25,.7-.42,1.48-.49,2.33-.07,.97,.1,1.85,.49,2.52Z" style="fill: #010101; fill-rule: evenodd;"/>
      </g>
    </g>
  </g>
</svg>