<?xml version="1.0" encoding="UTF-8"?>
<svg id="Camada_2" data-name="Camada 2" xmlns="http://www.w3.org/2000/svg" viewBox="0 0 138.46 251.03">
  <g id="Layer_1" data-name="Layer 1">
    <g>
      <path d="M0,0V39.75c1.78,0,3.55,.07,5.31,.19l-.14-12.22c47.42,2.68,85.3,41.7,85.84,89.9,.54,48.2-36.45,88.06-83.8,91.81l-.14-12.22c-2.04,.18-4.1,.31-6.19,.34H.89s-.02,0-.03,0c0,0-.02,0-.03,0H.83c-.28,0-.55-.01-.83-.01v53.5H138.46V0H0Z" style="fill: none;"/>
      <path d="M.89,197.55H.89s-.02,0-.03,0c0,0,.02,0,.03,0Z" style="fill: #333;"/>
      <path d="M.2,141.55c-.07,0-.14,0-.2,0v55.99c.28,0,.55,.01,.83,.01L.2,141.55Z" style="fill: #333;"/>
      <path d="M22.9,118.38c.14,12.65-10,23.02-22.65,23.16-.02,0-.04,0-.05,0l.63,56H.83s.02,0,.03,0c0,0,.02,0,.03,0,2.09-.02,4.15-.15,6.19-.34l-.57-50.38c12.94-3,22.52-14.67,22.37-28.51s-10-25.29-23-28l-.57-50.38c-1.75-.12-3.52-.18-5.31-.19v55.99c12.53,0,22.76,10.08,22.9,22.64Z" style="fill: #333;"/>
      <path d="M28.88,118.32c.16,13.83-9.42,25.51-22.37,28.51l.57,50.38,.14,12.22c47.34-3.74,84.34-43.61,83.8-91.81C90.47,69.42,52.59,30.4,5.17,27.72l.14,12.22,.57,50.38c13.01,2.71,22.85,14.16,23,28Z" style="fill: #f15845;"/>
      <path d="M.26,141.55c12.65-.14,22.79-10.51,22.65-23.16-.14-12.56-10.37-22.64-22.9-22.64v7.54c8.41,0,15.27,6.76,15.37,15.19,.1,8.49-6.71,15.45-15.2,15.54-.06,0-.11,0-.17,0v7.54c.07,0,.13,0,.2,0,.02,0,.04,0,.05,0Z" style="fill: #fff;"/>
      <path d="M.17,134.01c8.49-.1,15.29-7.05,15.2-15.54-.09-8.43-6.96-15.19-15.37-15.19v2.38c7.1,0,12.91,5.71,12.99,12.83,.08,7.17-5.67,13.05-12.84,13.13-.05,0-.1,0-.15,0v2.38c.06,0,.11,0,.17,0Z" style="fill: #b3b3b3;"/>
      <path d="M.15,131.63c7.17-.08,12.92-5.96,12.84-13.13-.08-7.12-5.88-12.83-12.99-12.83v25.96s.1,0,.15,0Z" style="fill: #fff;"/>
    </g>
  </g>
</svg>