<?xml version="1.0" encoding="UTF-8"?>
<svg id="Camada_2" data-name="Camada 2" xmlns="http://www.w3.org/2000/svg" viewBox="0 0 93.32 94.63">
  <g id="Capa_1" data-name="Capa 1">
    <path d="M46.66,67.69c-8.49,0-15.76-5.19-18.82-12.58H0c3.72,22.42,23.19,39.52,46.66,39.52,23.47,0,42.94-17.1,46.66-39.52h-27.84c-3.06,7.38-10.33,12.58-18.82,12.58Z" style="fill: #fff;"/>
    <path d="M46.66,0C23.19,0,3.72,17.1,0,39.52H27.84c3.06-7.38,10.33-12.58,18.82-12.58s15.76,5.19,18.82,12.58h27.84C89.6,17.1,70.14,0,46.66,0Z" style="fill: #fff;"/>
    <path d="M46.66,56.37c1.68,0,3.24-.46,4.59-1.26,2.67-1.57,4.47-4.47,4.47-7.8s-1.8-6.22-4.47-7.8c-1.35-.79-2.91-1.26-4.59-1.26s-3.24,.46-4.59,1.26c-2.67,1.57-4.47,4.47-4.47,7.8,0,3.32,1.8,6.22,4.47,7.8,1.35,.79,2.91,1.26,4.59,1.26Z" style="fill: #fff;"/>
  </g>
</svg>