<?xml version="1.0" encoding="UTF-8"?>
<svg id="Camada_2" data-name="Camada 2" xmlns="http://www.w3.org/2000/svg" viewBox="0 0 246.73 246.73">
  <g id="Layer_1" data-name="Layer 1">
    <g>
      <path d="M123.36,161.79c-16.41,0-30.44-10.34-35.94-24.85H14.12c2.97,24.26,13.86,46.7,31.41,64.25,20.79,20.79,48.43,32.24,77.83,32.24s57.04-11.45,77.83-32.24c17.55-17.55,28.45-39.99,31.41-64.25h-73.3c-5.5,14.5-19.53,24.85-35.94,24.85Z" style="fill: #f4f3f3;"/>
      <circle cx="123.36" cy="123.36" r="25.13" style="fill: #f4f3f3;"/>
      <path d="M123.36,13.3c-29.4,0-57.04,11.45-77.83,32.24-17.55,17.55-28.45,39.99-31.41,64.25H87.42c5.5-14.5,19.53-24.85,35.94-24.85s30.44,10.34,35.94,24.85h73.3c-2.97-24.26-13.86-46.7-31.41-64.25-20.79-20.79-48.43-32.24-77.83-32.24Z" style="fill: #ed1c24;"/>
      <path d="M123.36,0C90.41,0,59.43,12.83,36.13,36.13,12.83,59.43,0,90.41,0,123.36s12.83,63.93,36.13,87.23c23.3,23.3,54.28,36.13,87.23,36.13s63.93-12.83,87.23-36.13c23.3-23.3,36.13-54.28,36.13-87.23s-12.83-63.93-36.13-87.23C187.29,12.83,156.31,0,123.36,0Zm77.83,201.19c-20.79,20.79-48.43,32.24-77.83,32.24s-57.04-11.45-77.83-32.24c-17.55-17.55-28.45-39.99-31.41-64.25H87.42c5.5,14.5,19.53,24.85,35.94,24.85s30.44-10.34,35.94-24.85h73.3c-2.97,24.26-13.86,46.7-31.41,64.25ZM98.23,123.36c0-13.86,11.27-25.13,25.13-25.13s25.13,11.27,25.13,25.13-11.27,25.13-25.13,25.13-25.13-11.27-25.13-25.13Zm61.07-13.58c-5.5-14.5-19.53-24.85-35.94-24.85s-30.44,10.34-35.94,24.85H14.12c2.97-24.26,13.86-46.7,31.41-64.25C66.32,24.74,93.96,13.3,123.36,13.3s57.04,11.45,77.83,32.24c17.55,17.55,28.45,39.99,31.41,64.25h-73.3Z"/>
    </g>
  </g>
</svg>