<?xml version="1.0" encoding="UTF-8"?>
<svg id="Camada_2" data-name="Camada 2" xmlns="http://www.w3.org/2000/svg" viewBox="0 0 176.49 176.38">
  <defs>
    <style>
      .cls-1 {
        fill: #f3b81a;
      }

      .cls-1, .cls-2, .cls-3, .cls-4 {
        fill-rule: evenodd;
      }

      .cls-2 {
        fill: #b11f83;
      }

      .cls-3 {
        fill: #f48b20;
      }

      .cls-4 {
        fill: #c03995;
      }
    </style>
  </defs>
  <g id="Layer_1" data-name="Layer 1">
    <g>
      <path class="cls-4" d="M88.3,0c48.71,0,88.19,39.48,88.19,88.19s-39.48,88.19-88.19,88.19S0,136.9,0,88.19,39.48,0,88.3,0h0Z"/>
      <path class="cls-2" d="M88.3,0c48.71,0,88.19,39.48,88.19,88.19s-39.48,88.19-88.19,88.19V0Z"/>
      <path class="cls-1" d="M87.86,39.48h.78c42.15,0,76.18,39.92,76.18,48.71s-34.03,48.71-76.18,48.71h-.78c-42.15,0-76.18-39.92-76.18-48.71S45.71,39.48,87.86,39.48h0Zm.44,27.36c11.79,0,21.35,9.56,21.35,21.35s-9.56,21.35-21.35,21.35-21.35-9.56-21.35-21.35,9.45-21.35,21.35-21.35h0Zm-.33-14.79l.33,.11,.22-.11c32.7,0,59.16,29.69,59.16,36.14s-26.47,36.14-59.16,36.14l-.22-.11-.33,.11c-32.7,0-59.16-29.69-59.16-36.14s26.47-36.14,59.16-36.14h0Z"/>
      <path class="cls-3" d="M88.3,39.48h.33c42.15,0,76.18,39.92,76.18,48.71s-34.03,48.71-76.18,48.71h-.33v-12.68l.22,.11c32.7,0,59.16-29.69,59.16-36.14s-26.47-36.14-59.16-36.14l-.22,.11v-12.68Zm0,70.06v-42.7c11.79,0,21.35,9.56,21.35,21.35s-9.56,21.35-21.35,21.35h0Z"/>
    </g>
  </g>
</svg>