<?xml version="1.0" encoding="UTF-8"?>
<svg id="Camada_2" data-name="Camada 2" xmlns="http://www.w3.org/2000/svg" viewBox="0 0 176.49 176.49">
  <defs>
    <style>
      .cls-1 {
        fill: #78421b;
      }

      .cls-1, .cls-2, .cls-3, .cls-4 {
        fill-rule: evenodd;
      }

      .cls-2 {
        fill: #b56428;
      }

      .cls-3 {
        fill: #5b3513;
      }

      .cls-4 {
        fill: #915022;
      }
    </style>
  </defs>
  <g id="Layer_1" data-name="Layer 1">
    <g>
      <path class="cls-1" d="M88.3,0c48.71,0,88.19,39.48,88.19,88.19s-39.48,88.3-88.19,88.3S0,137.01,0,88.19,39.59,0,88.3,0h0Z"/>
      <path class="cls-3" d="M88.3,0c48.71,0,88.19,39.48,88.19,88.19s-39.48,88.3-88.19,88.3V0Z"/>
      <path class="cls-2" d="M44.04,94.97c15.79-.22,28.69,15.01,22.69,29.92-4.78,11.9-17.68,14.01-28.02,7.34-10.79-6.78-21.02-20.24-9.01-31.58,3.89-3.56,9.01-5.45,14.35-5.67h0ZM109.65,23.02c19.57,0,17.9,32.03-3,30.81-19.46-1.22-18.46-27.91,.22-30.69,.89-.11,1.78-.22,2.78-.11h0Zm-54.49,5c26.36,1.11,23.35,40.26-1.22,41.48-13.01,.67-23.91-8.9-21.8-22.8,1.67-10.9,12.01-19.13,23.02-18.68h0Zm89.19,37.26c13.46-.11,17.79,12.57,14.12,23.69-2.67,8.01-9.12,17.9-15.68,23.24-7.56,6.12-16.57-.11-19.13-8.56-4.34-14.23,3.23-38.59,20.69-38.37h0Zm-37.7,49.38c12.79-.33,22.8,13.23,22.58,25.69-.22,11.34-8.67,22.24-20.46,22.13-10.01-.11-16.35-7.78-15.79-17.46,.22-4.23,1.56-9.01,2-13.46,1-7.9,1.11-17.13,11.68-16.9h0Zm-14.9-49.71c18.79,.11,25.13,24.69,12.46,37.48-14.23,14.46-38.03-.22-33.25-20.69,2.34-9.56,10.9-17.02,20.8-16.79h0Z"/>
      <path class="cls-4" d="M88.3,108.1v-42.93c1.11-.11,2.22-.22,3.45-.22,18.79,.11,25.13,24.69,12.46,37.48-4.67,4.78-10.45,6.34-15.9,5.67h0ZM109.65,23.02c19.57,0,17.9,32.03-3,30.81-19.46-1.22-18.46-27.91,.22-30.69,.89-.11,1.78-.22,2.78-.11h0Zm34.7,42.26c13.46-.11,17.79,12.57,14.12,23.69-2.67,8.01-9.12,17.9-15.68,23.24-7.56,6.12-16.57-.11-19.13-8.56-4.34-14.23,3.23-38.59,20.69-38.37h0Zm-37.7,49.38c12.79-.33,22.8,13.23,22.58,25.69-.22,11.34-8.67,22.24-20.46,22.13-10.01-.11-16.35-7.78-15.79-17.46,.22-4.23,1.56-9.01,2-13.46,1-7.9,1.11-17.13,11.68-16.9h0Z"/>
    </g>
  </g>
</svg>