<?xml version="1.0" encoding="UTF-8"?>
<svg id="Camada_2" data-name="Camada 2" xmlns="http://www.w3.org/2000/svg" viewBox="0 0 176.49 176.49">
  <defs>
    <style>
      .cls-1 {
        fill: #b92025;
      }

      .cls-1, .cls-2, .cls-3, .cls-4 {
        fill-rule: evenodd;
      }

      .cls-2 {
        fill: #fff;
      }

      .cls-3 {
        fill: #8f191c;
      }

      .cls-4 {
        fill: #e5e6e7;
      }
    </style>
  </defs>
  <g id="Layer_1" data-name="Layer 1">
    <g>
      <path class="cls-1" d="M88.19,0c48.82,0,88.3,39.48,88.3,88.3s-39.48,88.19-88.3,88.19S0,137.01,0,88.3,39.48,0,88.19,0h0Z"/>
      <path class="cls-3" d="M88.19,0c48.82,0,88.3,39.48,88.3,88.3s-39.48,88.19-88.3,88.19V0Z"/>
      <path class="cls-2" d="M88.19,28.02c21.35,0,38.59,17.35,38.59,38.59,0,12.46-5.89,23.58-15.12,30.58-5.67,21.57-41.15,21.57-46.93,0-9.12-7.01-15.01-18.13-15.01-30.58,0-21.24,17.24-38.59,38.48-38.59h0Zm54.83,86.97h0c.78,2.89-1,6.01-3.89,6.78l-29.47,7.9,29.47,7.9c2.89,.78,4.67,3.78,3.89,6.78h0c-.78,2.89-3.89,4.67-6.78,3.89l-48.04-12.9-47.93,12.9c-3,.78-6.01-1-6.78-3.89h0c-.78-3,1-6.01,3.89-6.78l29.47-7.9-29.47-7.9c-2.89-.78-4.67-3.89-3.89-6.78h0c.78-3,3.78-4.78,6.78-3.89l47.93,12.79,48.04-12.79c2.89-.89,6.01,.89,6.78,3.89h0ZM74.29,51.38c4.45,0,8.12,6.34,8.12,14.01s-3.67,14.01-8.12,14.01-8.12-6.23-8.12-14.01,3.56-14.01,8.12-14.01h0Zm27.91,0c4.56,0,8.12,6.34,8.12,14.01s-3.56,14.01-8.12,14.01-8.12-6.23-8.12-14.01,3.67-14.01,8.12-14.01h0Zm-18.35,32.47c.89,0,1.67,1.22,1.67,2.78s-.78,2.89-1.67,2.89-1.67-1.33-1.67-2.89,.78-2.78,1.67-2.78h0Zm8.79,0c.89,0,1.67,1.22,1.67,2.78s-.78,2.89-1.67,2.89c-1,0-1.67-1.33-1.67-2.89s.67-2.78,1.67-2.78h0Z"/>
      <path class="cls-4" d="M88.19,28.02c21.35,0,38.59,17.35,38.59,38.59,0,12.46-5.89,23.58-15.12,30.58-2.78,10.79-13.12,16.13-23.47,16.13V28.02Zm0,107.32v-11.45l48.04-12.79c2.89-.89,6.01,.89,6.78,3.89h0c.78,2.89-1,6.01-3.89,6.78l-29.47,7.9,29.47,7.9c2.89,.78,4.67,3.78,3.89,6.78h0c-.78,2.89-3.89,4.67-6.78,3.89l-48.04-12.9Zm14.01-83.96c4.56,0,8.12,6.34,8.12,14.01s-3.56,14.01-8.12,14.01-8.12-6.23-8.12-14.01,3.67-14.01,8.12-14.01h0Zm-9.56,32.47c.89,0,1.67,1.22,1.67,2.78s-.78,2.89-1.67,2.89c-1,0-1.67-1.33-1.67-2.89s.67-2.78,1.67-2.78h0Z"/>
    </g>
  </g>
</svg>