<?xml version="1.0" encoding="UTF-8"?>
<svg id="Camada_2" data-name="Camada 2" xmlns="http://www.w3.org/2000/svg" viewBox="0 0 176.49 176.49">
  <defs>
    <style>
      .cls-1 {
        fill: #fff;
      }

      .cls-1, .cls-2, .cls-3, .cls-4 {
        fill-rule: evenodd;
      }

      .cls-2 {
        fill: #0a87b3;
      }

      .cls-3 {
        fill: #e5e6e7;
      }

      .cls-4 {
        fill: #1fafdf;
      }
    </style>
  </defs>
  <g id="Layer_1" data-name="Layer 1">
    <g>
      <path class="cls-4" d="M88.3,0c48.71,0,88.19,39.48,88.19,88.3s-39.48,88.19-88.19,88.19S0,137.01,0,88.3,39.59,0,88.3,0h0Z"/>
      <path class="cls-2" d="M88.3,0c48.71,0,88.19,39.48,88.19,88.3s-39.48,88.19-88.19,88.19V0Z"/>
      <path class="cls-1" d="M53.94,85.19c51.71-38.7,80.18-60.94,88.52-55.94,8.23,4.78-26.8,39.48-25.13,45.15,1.78,5.67,28.58,5.89,28.8,10.12,.33,4.23-23.91,9.9-25.69,14.68-1.67,4.89,25.69,13.35,25.47,19.24-.33,5.89-32.47-2.22-34.48,2-2,4.23,5.34,18.24,.44,21.57-5,3.34-24.69-14.24-28.69-11.12-3.89,3.11-5,18.91-26.25,16.9-14.23-1.33-24.91-11.9-26.36-25.02-1.89-17.57,10.79-28.25,23.35-37.59h0Z"/>
      <path class="cls-3" d="M88.3,59.5c30.25-22.35,47.82-34.03,54.16-30.25,8.23,4.78-26.8,39.48-25.13,45.15,1.78,5.67,28.58,5.89,28.8,10.12,.33,4.23-23.91,9.9-25.69,14.68-1.67,4.89,25.69,13.35,25.47,19.24-.33,5.89-32.47-2.22-34.48,2-2,4.23,5.34,18.24,.44,21.57-3.89,2.56-16.24-7.12-23.58-10.45V59.5Z"/>
    </g>
  </g>
</svg>